<?xml version="1.0" standalone="no"?>
<!DOCTYPE svg PUBLIC "-//W3C//DTD SVG 20010904//EN"
 "http://www.w3.org/TR/2001/REC-SVG-20010904/DTD/svg10.dtd">
<svg version="1.0" xmlns="http://www.w3.org/2000/svg"
 width="2048.000000pt" height="2048.000000pt" viewBox="0 0 2048.000000 2048.000000"
 preserveAspectRatio="xMidYMid meet">

<g transform="translate(0.000000,2048.000000) scale(0.100000,-0.100000)"
fill="#000000" stroke="none">
<path d="M8546 16274 c-299 -54 -528 -148 -708 -292 -84 -66 -205 -194 -255
-268 -62 -91 -162 -299 -149 -311 2 -2 30 3 62 11 33 8 142 27 244 41 102 15
214 33 250 40 91 19 247 39 675 85 433 47 808 75 1245 91 173 6 317 13 319 15
3 3 -9 23 -25 47 l-30 42 -105 -3 c-103 -3 -363 -17 -909 -48 -367 -21 -724
-23 -805 -5 -75 17 -131 45 -146 72 -21 40 -5 115 37 177 50 73 179 183 294
251 84 51 113 72 93 70 -4 0 -43 -7 -87 -15z"/>
<path d="M11886 15969 c-106 -97 -140 -226 -97 -368 27 -88 103 -176 181 -210
l50 -22 0 -228 0 -229 48 -139 c27 -76 57 -167 66 -203 l18 -65 80 -26 80 -25
-7 115 c-11 219 -26 459 -38 635 l-13 176 58 35 c32 20 69 50 82 68 21 28 66
110 66 120 0 2 -24 -8 -52 -22 -45 -22 -66 -26 -138 -26 -74 1 -94 5 -151 31
-115 55 -179 129 -197 231 -9 53 -2 126 17 176 6 15 9 27 7 27 -3 0 -29 -23
-60 -51z"/>
<path d="M12120 15840 c-9 -6 -10 -10 -3 -10 6 0 15 5 18 10 8 12 4 12 -15 0z"/>
<path d="M4795 15659 c-63 -70 -89 -140 -89 -239 0 -106 26 -178 90 -249 46
-51 138 -105 199 -117 23 -4 35 -13 38 -27 5 -20 40 -185 188 -887 28 -129 52
-243 55 -252 5 -15 13 -12 57 21 90 67 273 151 398 182 97 24 196 26 236 5 31
-16 88 -74 121 -123 27 -38 27 -43 3 -38 -25 5 -22 -25 7 -82 118 -229 148
-719 61 -980 -29 -90 -70 -140 -136 -170 -51 -24 -60 -25 -107 -14 -28 6 -66
20 -84 31 -30 18 -66 78 -74 125 -2 11 -8 -27 -12 -85 -21 -300 -105 -504
-232 -566 -45 -22 -63 -26 -101 -20 -44 6 -45 5 -30 -11 31 -35 130 -87 225
-119 l96 -32 14 -68 c18 -95 77 -264 122 -354 87 -174 194 -277 385 -370 129
-63 203 -88 360 -119 180 -36 536 -71 732 -71 l88 0 -35 -27 c-121 -92 -277
-278 -349 -419 l-30 -59 72 -34 c106 -51 235 -184 300 -307 70 -135 91 -228
92 -399 0 -77 1 -130 3 -117 2 12 7 22 12 22 4 0 6 8 3 19 -3 10 0 22 7 26 7
4 8 11 2 18 -11 14 7 61 26 64 6 2 12 -5 12 -15 1 -16 1 -16 11 1 5 9 7 22 4
27 -3 6 2 10 12 11 16 0 16 1 -1 8 -14 5 -16 10 -8 15 7 4 17 4 24 0 7 -5 8
-3 3 6 -6 9 -4 12 6 8 8 -2 22 4 32 14 9 10 13 18 7 18 -5 0 -10 4 -10 9 0 5
9 7 20 4 11 -3 17 -10 13 -17 -4 -6 1 -5 10 3 11 9 17 10 17 2 0 -27 18 -7 25
27 8 46 71 240 96 299 16 38 17 48 6 76 -11 26 -14 28 -20 14 -4 -11 -3 -16 3
-12 6 3 10 1 10 -4 0 -20 -29 -11 -54 15 -18 20 -30 25 -47 21 -13 -3 -30 -1
-38 6 -12 9 -13 9 -7 0 4 -7 2 -13 -3 -13 -6 0 -14 0 -18 0 -5 0 -8 8 -8 17 0
11 8 18 19 18 10 0 20 7 21 16 2 11 -4 15 -20 14 -18 -3 -22 1 -17 18 5 20 6
20 13 1 6 -15 8 -13 8 11 1 23 4 27 11 15 8 -12 10 -9 10 13 0 17 5 27 15 27
8 0 15 5 15 10 0 6 17 10 38 9 21 0 31 -3 22 -7 -18 -8 -26 -42 -10 -42 6 0 9
4 6 9 -3 5 1 11 9 15 9 3 19 -3 25 -14 8 -16 8 -18 -5 -14 -8 4 -15 1 -15 -6
0 -6 5 -8 10 -5 6 3 10 1 10 -5 0 -7 7 -5 16 4 8 9 12 21 9 27 -4 6 4 22 16
36 30 31 34 76 7 67 -23 -7 -23 5 -1 21 14 11 12 13 -20 19 -30 6 -35 9 -24
20 6 8 15 12 18 10 3 -2 6 3 6 11 0 8 -4 12 -9 9 -4 -3 -9 4 -9 15 -1 12 -2
27 -3 34 -1 6 7 11 18 9 11 -2 15 1 11 7 -8 14 -38 14 -52 0 -8 -8 -13 -5 -18
11 -4 12 -4 24 -1 27 3 4 6 -1 6 -10 0 -10 5 -17 11 -17 5 0 7 5 3 12 -5 7 -3
8 5 4 7 -5 18 -1 25 10 14 18 53 13 41 -6 -4 -6 8 -10 30 -10 24 0 34 -4 29
-11 -4 -7 2 -6 17 2 22 11 23 11 10 -4 -12 -15 -11 -17 8 -17 28 0 27 -17 -1
-23 -23 -4 -23 -4 1 -6 15 -1 21 -6 18 -15 -7 -17 37 -61 52 -51 20 11 12 -18
-11 -44 -13 -14 2 -3 32 24 73 64 160 120 226 145 48 18 78 20 250 20 283 0
556 17 825 50 130 17 247 30 260 30 l25 0 -12 -83 c-7 -46 -15 -104 -17 -128
-3 -24 -10 -59 -16 -77 -5 -18 -24 -124 -41 -235 -17 -111 -48 -310 -70 -442
-21 -132 -41 -265 -45 -295 -4 -30 -8 -62 -11 -71 -3 -11 12 -23 53 -40 l58
-25 -3 80 c-4 94 8 188 89 699 33 207 57 382 54 387 -3 6 -2 10 2 10 8 0 23
73 50 228 5 28 9 33 27 28 11 -3 51 -9 89 -12 66 -7 67 -7 66 17 -1 17 -3 19
-6 7 -3 -11 -13 -18 -26 -17 -16 1 -18 2 -5 6 10 2 15 10 11 19 -3 8 0 14 6
14 6 0 11 5 11 11 0 6 -7 8 -16 5 -9 -4 -13 -2 -8 5 4 6 0 16 -7 21 -10 7 -8
8 8 3 12 -3 25 -1 29 6 4 8 3 9 -5 5 -6 -4 -24 3 -39 15 -17 14 -20 20 -8 15
16 -5 17 -3 11 21 -4 16 -7 36 -7 46 0 9 -3 17 -7 17 -4 0 -7 18 -6 40 l1 39
-69 -4 c-39 -3 -79 -7 -89 -11 -13 -4 -18 0 -18 12 0 10 3 15 6 11 8 -8 34 18
34 35 0 10 -2 10 -9 -1 -6 -9 -11 -10 -15 -2 -4 6 -10 10 -14 7 -4 -2 -60 -7
-124 -10 -65 -4 -128 -9 -140 -11 -37 -5 -313 -21 -693 -39 -225 -11 -557 -13
-643 -4 -29 3 -30 4 -15 16 13 9 14 12 2 12 -12 0 -12 2 0 9 11 7 11 9 0 14
-10 4 -9 6 4 6 19 1 23 16 7 26 -5 3 -10 11 -10 16 0 6 5 7 12 3 8 -5 9 -2 4
11 -5 15 -4 16 9 5 9 -7 19 -10 22 -6 4 4 1 11 -6 16 -11 6 -10 9 5 13 16 4
16 5 -3 6 -15 1 -23 7 -23 20 0 14 -10 21 -35 25 -26 5 -42 16 -55 39 -25 41
-26 67 -1 67 27 0 48 -27 32 -43 -10 -9 -11 -8 -6 4 8 21 -14 36 -26 18 -5 -8
-4 -15 1 -17 6 -2 8 -8 4 -13 -3 -5 0 -9 5 -9 6 0 10 -5 8 -11 -1 -6 3 -13 10
-16 6 -2 12 4 13 14 3 74 -1 70 68 69 50 0 62 -3 57 -14 -4 -11 -2 -12 7 -5 7
6 20 11 28 12 8 0 30 2 48 4 18 2 35 0 38 -5 3 -4 10 -8 15 -8 6 0 7 5 4 10
-7 12 2 12 30 0 11 -5 14 -9 7 -9 -7 -1 -11 -5 -8 -10 3 -5 -6 -12 -20 -15
-15 -4 -24 -9 -22 -12 3 -2 27 3 53 11 36 10 52 11 62 3 16 -13 66 9 57 24 -3
4 -10 5 -16 2 -6 -4 -9 -1 -6 6 2 7 12 14 21 16 9 1 15 -2 11 -7 -3 -5 2 -9
11 -9 10 0 13 5 9 13 -6 9 -5 9 7 0 15 -12 89 -13 89 -1 0 3 8 9 18 12 9 3
-64 3 -163 0 -99 -3 -245 -6 -325 -7 l-145 -2 -3 -27 c-4 -33 -31 -38 -50 -8
-11 17 -9 20 16 27 23 7 18 9 -33 14 -102 11 -237 10 -230 -2 4 -6 9 -8 12 -5
4 3 14 -4 24 -15 10 -12 23 -18 28 -14 12 7 15 -24 3 -41 -13 -19 -42 -25 -42
-8 0 8 4 13 9 10 5 -4 8 2 6 11 -2 10 -4 23 -5 28 -1 6 -6 -1 -11 -14 -5 -14
-15 -21 -23 -18 -15 6 -40 -15 -31 -25 3 -3 -1 -11 -10 -18 -8 -7 -15 -19 -15
-28 0 -8 -3 -12 -7 -8 -9 9 -11 46 -2 40 4 -2 7 4 6 15 -1 12 -6 17 -16 13
-10 -4 -12 -1 -7 9 4 8 1 6 -7 -4 -9 -10 -18 -14 -21 -8 -3 5 2 17 11 27 16
16 16 17 1 12 -9 -4 -19 -2 -22 5 -3 7 -3 2 0 -10 3 -14 1 -23 -6 -23 -6 0 -8
-4 -5 -10 8 -13 -1 -13 -26 1 -15 8 -24 7 -37 -3 -13 -11 -14 -11 -7 1 5 10 4
12 -3 7 -20 -12 -14 -54 8 -61 11 -3 20 -12 20 -18 0 -7 4 -6 10 3 7 12 9 10
7 -7 0 -12 -5 -19 -10 -16 -5 3 -8 0 -5 -8 3 -8 18 -14 34 -14 16 0 35 -4 41
-8 7 -4 22 -3 33 3 11 6 25 8 30 5 6 -3 10 0 10 7 0 9 3 9 10 -2 6 -10 10 -11
10 -2 0 6 4 12 9 12 5 0 7 -9 4 -19 -5 -19 -18 -22 -41 -7 -17 10 -37 -8 -27
-24 4 -6 13 -9 21 -6 7 3 16 1 19 -4 6 -9 -36 -7 -53 4 -7 4 -20 2 -29 -4 -17
-11 -17 -11 0 -6 23 7 49 -3 40 -17 -4 -7 0 -8 11 -4 10 4 26 2 37 -3 13 -8
19 -7 19 0 0 6 5 8 11 4 8 -4 7 -9 -2 -15 -19 -13 -128 -3 -285 26 -73 14
-137 25 -141 25 -9 0 30 29 40 30 5 0 5 -5 1 -12 -5 -8 -2 -9 9 -5 10 4 17 1
17 -5 0 -6 3 -8 7 -5 3 4 12 2 19 -4 9 -7 12 -6 10 7 -1 9 -10 20 -19 26 -9 5
-17 16 -17 24 0 8 5 12 10 9 6 -3 10 1 10 9 0 27 -20 28 -32 2 -12 -28 -33
-34 -42 -13 -3 6 -3 0 -2 -14 4 -25 4 -25 -40 -14 -23 6 -46 14 -50 18 -10 10
5 9 44 -2 20 -6 32 -6 32 0 0 5 -10 9 -22 10 -13 0 -17 3 -10 6 9 4 10 8 2 18
-9 10 -4 15 21 20 23 5 28 10 18 16 -8 5 -10 9 -6 9 4 0 19 -7 32 -16 15 -10
25 -12 25 -5 0 5 8 8 18 5 11 -3 10 -1 -3 6 -12 6 -25 21 -30 32 -6 12 -17 23
-25 26 -13 3 -13 2 0 -7 8 -5 11 -13 7 -17 -3 -4 -13 -1 -22 6 -8 7 -15 10
-15 6 0 -4 -13 0 -30 9 -16 9 -30 21 -30 28 0 10 19 45 37 67 5 5 23 -21 23
-34 0 -5 -7 -3 -15 4 -12 10 -16 9 -21 -4 -4 -9 -4 -20 0 -23 3 -4 6 2 6 12 0
14 3 15 14 6 19 -16 30 3 16 28 -14 27 -14 27 28 24 24 -2 7 5 -48 22 -115 35
-218 86 -278 140 -27 24 -53 41 -56 37 -4 -4 -6 -2 -4 3 1 6 -13 35 -32 65
-33 52 -36 54 -52 39 -9 -10 -14 -20 -11 -23 4 -3 1 -6 -6 -6 -7 0 -9 -4 -6
-10 3 -5 0 -10 -9 -10 -8 0 -16 -5 -18 -10 -2 -6 -16 -8 -35 -4 -44 9 -49 44
-13 79 20 20 29 23 33 13 4 -8 6 -9 6 -1 1 16 -16 26 -24 13 -11 -18 -25 -11
-26 13 0 15 -2 17 -6 7 -3 -8 -11 -18 -17 -22 -8 -6 -7 -11 3 -17 12 -8 12
-12 2 -25 -17 -20 -54 0 -41 23 5 9 3 20 -6 28 -12 12 -10 18 11 41 14 15 25
33 25 41 0 8 7 22 16 32 12 13 12 19 3 25 -8 5 -10 3 -4 -6 5 -9 4 -11 -3 -6
-20 12 -13 25 16 28 15 2 26 8 25 15 -2 7 4 10 13 6 13 -5 15 -2 10 13 -33
108 -104 482 -130 689 -53 420 -85 716 -87 814 -1 48 -3 51 -8 21 -4 -19 -6
-50 -5 -67 1 -18 -2 -33 -7 -33 -5 0 -6 -7 -3 -15 4 -8 10 -12 15 -9 5 3 9
-22 9 -55 0 -42 -4 -61 -12 -61 -9 0 -8 -4 2 -10 13 -8 12 -10 -4 -10 -11 0
-28 -7 -38 -17 -10 -9 -20 -14 -22 -12 -2 2 -7 31 -11 64 -3 33 -10 78 -15
100 -13 56 -12 63 6 37 9 -13 13 -29 10 -37 -3 -8 -2 -15 3 -15 16 0 20 41 5
47 -10 4 -11 10 -3 24 5 10 6 19 1 19 -5 0 -8 10 -8 23 1 12 -4 21 -11 19 -16
-3 -17 10 -1 26 9 9 9 12 0 12 -7 0 -17 -10 -22 -22 -6 -16 -9 -18 -9 -6 -1 9
-4 25 -7 35 -5 15 -4 15 5 3 9 -12 11 -12 16 2 6 16 9 15 27 -2 25 -23 42 -17
28 10 -7 13 -7 21 0 25 5 3 10 1 10 -5 0 -6 4 -9 9 -5 6 3 15 -3 21 -12 8 -14
10 32 6 181 -3 110 -6 267 -6 349 0 132 -2 148 -15 137 -10 -9 -15 -9 -15 -1
0 6 -5 11 -10 11 -6 0 -8 -12 -5 -27 5 -25 4 -26 -4 -6 -10 21 -7 60 4 71 3 3
5 -2 5 -11 0 -9 3 -18 8 -21 11 -6 9 81 -2 91 -5 5 -7 1 -3 -9 3 -10 3 -19 -1
-22 -19 -12 -9 49 12 77 16 22 23 43 21 65 -1 17 1 32 6 32 5 0 9 5 9 11 0 6
-7 9 -14 6 -10 -4 -13 -1 -9 9 3 7 11 14 18 14 9 0 12 -13 9 -47 -3 -27 -8
-55 -11 -63 -3 -8 -7 -33 -8 -55 -2 -22 -5 -51 -9 -64 -3 -13 -3 -28 1 -34 10
-17 23 17 23 66 0 77 27 237 55 320 29 91 63 160 115 237 35 52 41 80 18 80
-7 0 -7 -5 1 -13 13 -16 5 -27 -21 -27 -22 0 -23 9 -1 39 9 14 11 21 5 17 -7
-4 -12 -2 -12 3 0 6 4 11 9 11 6 0 9 9 8 20 -1 16 -8 20 -34 18 -20 -1 -33 -7
-33 -15 0 -10 -5 -11 -19 -4 -10 6 -22 7 -26 3 -5 -4 -5 -2 -1 5 4 7 13 10 21
6 10 -3 14 0 10 8 -5 16 57 67 94 76 14 4 32 13 40 20 8 9 26 13 47 10 21 -3
31 -1 28 5 -4 6 1 8 14 4 13 -5 22 -1 26 10 5 12 14 15 37 10 18 -3 28 -2 24
4 -3 5 1 7 9 4 17 -7 24 -21 21 -50 -1 -19 10 -16 119 36 127 60 347 150 367
150 7 0 10 2 7 5 -8 8 -258 -43 -419 -85 -678 -181 -1114 -456 -1275 -804 -38
-84 -90 -267 -100 -359 -4 -32 -10 -55 -14 -50 -11 11 -73 211 -180 583 -50
173 -100 343 -111 378 l-21 63 44 47 c50 54 84 105 93 143 l7 27 -56 -28
c-135 -68 -326 -39 -446 67 -80 71 -109 164 -90 286 4 26 6 47 5 47 -2 0 -19
-19 -40 -41z m1455 -1055 c0 -8 4 -13 8 -10 5 3 9 -1 9 -9 0 -11 -4 -11 -22 1
-12 8 -26 11 -30 7 -5 -5 -3 0 4 10 17 21 31 22 31 1z m65 -13 c3 -5 2 -12 -3
-15 -5 -3 -9 1 -9 9 0 17 3 19 12 6z m-108 -58 c-3 -10 -5 -4 -5 12 0 17 2 24
5 18 2 -7 2 -21 0 -30z m239 -40 c1 -6 -4 -14 -11 -17 -14 -5 -42 40 -32 51 4
3 7 1 7 -5 0 -7 4 -12 9 -12 5 0 7 10 5 23 -4 20 -4 20 7 -3 7 -14 13 -30 15
-37z m-222 -4 c-10 -16 7 -31 21 -19 10 8 19 8 35 0 12 -6 19 -14 16 -18 -4
-3 -12 0 -18 6 -16 16 -28 15 -28 -3 0 -7 -6 -18 -12 -22 -17 -10 -47 -49 -31
-40 9 6 9 -1 2 -25 -5 -18 -9 -34 -9 -36 0 -2 -5 0 -10 3 -6 4 -8 24 -5 48 4
23 6 58 6 77 l0 35 14 -30 c16 -34 20 -20 5 19 -7 20 -6 24 5 19 8 -3 12 -9 9
-14z m181 -10 c11 -17 -1 -21 -15 -4 -8 9 -8 15 -2 15 6 0 14 -5 17 -11z m-5
-54 c0 -8 -4 -15 -9 -15 -13 0 -22 16 -14 24 11 11 23 6 23 -9z m-155 -15 c3
-5 1 -10 -4 -10 -6 0 -11 5 -11 10 0 6 2 10 4 10 3 0 8 -4 11 -10z m-5 -100
c0 -11 -2 -20 -4 -20 -2 0 -6 9 -9 20 -3 11 -1 20 4 20 5 0 9 -9 9 -20z m124
-16 c3 -8 10 -12 16 -9 5 3 10 1 10 -4 0 -14 -17 -14 -25 -1 -4 6 -10 8 -14 6
-4 -3 -8 1 -8 9 0 20 13 19 21 -1z m26 -48 c0 -3 -4 -8 -10 -11 -5 -3 -10 -1
-10 4 0 6 5 11 10 11 6 0 10 -2 10 -4z m60 -21 c0 -8 -4 -15 -10 -15 -5 0 -7
7 -4 15 4 8 8 15 10 15 2 0 4 -7 4 -15z m-35 -15 c-3 -5 -13 -6 -21 -3 -12 4
-13 8 -3 14 15 9 32 2 24 -11z m132 -1422 c-3 -8 -6 -5 -6 6 -1 11 2 17 5 13
3 -3 4 -12 1 -19z m-17 -31 c20 5 22 1 35 -81 5 -28 2 -43 -11 -57 -9 -10 -12
-19 -6 -19 6 0 13 6 15 13 4 9 6 9 6 0 1 -11 -15 -26 -31 -29 -5 -1 -9 -2 -10
-4 -10 -7 -37 -7 -32 1 3 5 1 9 -5 9 -6 0 -8 8 -4 18 6 16 5 16 -14 -1 -20
-18 -20 -17 -22 69 -2 78 0 86 13 74 14 -10 16 -10 16 6 0 16 2 17 10 4 8 -13
10 -12 11 5 1 15 2 16 6 4 2 -11 11 -15 23 -12z m-53 -209 c-3 -8 -6 -5 -6 6
-1 11 2 17 5 13 3 -3 4 -12 1 -19z m-14 -36 c-10 -10 -20 -14 -22 -9 -2 5 3
13 10 18 24 15 30 10 12 -9z m-26 -144 c-3 -7 -5 -2 -5 12 0 14 2 19 5 13 2
-7 2 -19 0 -25z m-10 -55 c-3 -10 -5 -4 -5 12 0 17 2 24 5 18 2 -7 2 -21 0
-30z m63 -488 c7 -8 17 -12 24 -8 6 3 8 3 4 -2 -4 -4 0 -14 10 -21 16 -12 15
-13 -6 -14 -13 0 -21 4 -17 9 3 5 -7 19 -21 30 -15 12 -22 21 -17 21 6 0 16
-7 23 -15z m-70 -46 c0 -14 -17 -10 -23 5 -4 10 -1 13 9 9 7 -3 14 -9 14 -14z
m38 -24 c15 -33 15 -38 0 -30 -7 4 -5 0 4 -8 10 -8 14 -18 10 -23 -4 -4 1 -2
11 5 14 11 17 11 17 -2 0 -8 -5 -17 -11 -19 -5 -2 -7 -11 -4 -21 4 -9 11 -14
16 -11 5 3 9 -4 9 -16 0 -12 4 -19 8 -16 5 3 9 -2 9 -11 0 -23 -56 42 -90 106
l-27 49 22 -4 c13 -2 17 -2 11 2 -15 6 -18 24 -5 24 5 0 14 -11 20 -25z m76
-11 c8 -22 8 -24 -6 -24 -6 0 -8 3 -5 7 4 3 2 12 -4 20 -7 8 -8 13 -1 13 5 0
13 -7 16 -16z m206 -14 c0 -5 -5 -10 -11 -10 -5 0 -7 5 -4 10 3 6 8 10 11 10
2 0 4 -4 4 -10z m-183 -55 c2 -19 -2 -35 -7 -35 -6 0 -9 3 -9 8 3 19 -2 33
-11 27 -5 -3 -10 1 -10 10 0 9 4 14 9 10 5 -3 12 -1 16 5 9 15 10 13 12 -25z
m1245 -232 c6 -7 8 -17 4 -20 -4 -4 -10 -2 -14 4 -4 7 -18 11 -30 10 -25 -2
-25 -2 -12 -28 7 -13 7 -19 0 -19 -5 0 -10 6 -10 13 0 8 -4 7 -10 -3 -8 -11
-9 -7 -4 15 4 23 3 26 -5 15 -7 -10 -11 -11 -11 -2 0 6 -8 12 -17 12 -14 0
-15 2 -4 9 21 13 100 9 113 -6z m557 -7 c10 -12 8 -14 -16 -11 -40 5 -40 5
-18 15 11 5 21 9 21 9 1 1 7 -5 13 -13z m-492 -52 c-3 -3 -12 -4 -19 -1 -8 3
-5 6 6 6 11 1 17 -2 13 -5z m-187 -35 c0 -5 -3 -8 -7 -8 -20 3 -34 -2 -28 -11
3 -5 2 -10 -4 -10 -5 0 -13 5 -16 10 -3 6 -1 10 5 10 6 0 9 3 7 8 -3 4 6 8 19
8 13 1 24 -2 24 -7z m180 1 c0 -5 -5 -10 -11 -10 -5 0 -7 5 -4 10 3 6 8 10 11
10 2 0 4 -4 4 -10z m-956 -12 c-3 -4 -11 -5 -19 -1 -21 7 -19 12 4 10 11 0 18
-5 15 -9z m812 -10 c4 -7 4 -10 -1 -6 -4 4 -16 3 -26 -2 -11 -6 -20 -6 -24 -1
-3 5 5 12 17 14 13 2 24 5 25 6 1 0 5 -5 9 -11z m-730 -7 c-9 -14 26 -23 37
-9 6 9 7 8 3 -4 -3 -10 -1 -18 4 -18 6 0 10 4 10 9 0 13 33 7 37 -6 2 -6 14
-9 26 -7 12 2 16 2 9 -2 -6 -3 -10 -10 -6 -15 8 -13 -6 -11 -77 11 -97 32 -97
32 -69 40 14 5 26 8 28 9 2 1 1 -3 -2 -8z m174 -11 c0 -5 -4 -10 -10 -10 -5 0
-10 5 -10 10 0 6 5 10 10 10 6 0 10 -4 10 -10z m460 -10 c0 -5 -2 -10 -4 -10
-3 0 -8 5 -11 10 -3 6 -1 10 4 10 6 0 11 -4 11 -10z m45 -10 c3 -5 2 -10 -4
-10 -5 0 -13 5 -16 10 -3 6 -2 10 4 10 5 0 13 -4 16 -10z m-113 -22 c-6 -6
-16 -7 -22 -3 -9 6 -9 9 1 16 17 10 34 0 21 -13z m-377 -18 c25 -11 -1 -11
-35 0 -20 6 -21 8 -5 8 11 0 29 -3 40 -8z m500 -40 c3 -5 1 -10 -4 -10 -6 0
-11 5 -11 10 0 6 2 10 4 10 3 0 8 -4 11 -10z m1935 -50 c-24 -15 -36 -11 -14
4 10 8 21 12 24 10 2 -3 -2 -9 -10 -14z m-1697 -7 c-7 -2 -21 -2 -30 0 -10 3
-4 5 12 5 17 0 24 -2 18 -5z m60 0 c-7 -2 -19 -2 -25 0 -7 3 -2 5 12 5 14 0
19 -2 13 -5z m-528 -253 c3 -6 -1 -7 -9 -4 -18 7 -21 14 -7 14 6 0 13 -4 16
-10z m135 -44 c0 -2 -7 -7 -16 -10 -8 -3 -12 -2 -9 4 6 10 25 14 25 6z m100
-38 c0 -4 8 -4 17 -1 15 6 16 5 3 -9 -12 -13 -16 -13 -28 -1 -8 8 -27 17 -43
20 -16 3 -29 9 -29 13 0 4 18 2 40 -3 22 -6 40 -15 40 -19z m70 -14 c0 -8 -19
-13 -24 -6 -3 5 1 9 9 9 8 0 15 -2 15 -3z m148 -24 c1 -4 14 -5 27 -2 20 3 24
1 19 -11 -5 -14 -10 -14 -46 -1 -50 17 -61 18 -52 2 4 -7 -2 -5 -13 5 -22 19
-53 23 -53 6 0 -5 -5 -7 -10 -4 -6 4 -8 11 -4 17 7 11 127 1 132 -12z m-183
-98 c-14 -2 -25 -8 -25 -13 0 -5 -4 -9 -8 -9 -5 0 -9 7 -9 15 0 9 10 15 24 15
13 0 23 6 23 13 0 8 4 7 10 -3 7 -12 4 -16 -15 -18z m90 -151 c0 -22 -24 -44
-26 -24 0 4 -2 17 -3 28 -1 13 3 21 14 21 10 0 16 -9 15 -25z m25 9 c0 -5 -5
-10 -11 -10 -5 0 -7 5 -4 10 3 6 8 10 11 10 2 0 4 -4 4 -10z m-593 -76 c0 -8
-4 -14 -9 -14 -4 0 -8 5 -8 10 0 6 -3 9 -7 9 -21 -3 -44 2 -39 9 8 14 63 2 63
-14z m-13 -33 c26 -27 27 -29 7 -24 -12 3 -28 14 -35 24 -7 10 -16 16 -21 11
-5 -4 -5 -1 -1 6 11 18 19 15 50 -17z m363 -7 c-3 -3 -12 -4 -19 -1 -8 3 -5 6
6 6 11 1 17 -2 13 -5z m43 -114 c0 -5 -7 -7 -15 -4 -8 4 -15 8 -15 10 0 2 7 4
15 4 8 0 15 -4 15 -10z m-90 -14 c0 -3 -4 -8 -10 -11 -5 -3 -10 -1 -10 4 0 6
5 11 10 11 6 0 10 -2 10 -4z m60 -12 c0 -8 -5 -12 -10 -9 -6 4 -8 11 -5 16 9
14 15 11 15 -7z m-96 -26 c-6 -10 -5 -10 7 -1 12 10 17 8 27 -7 18 -29 5 -49
-26 -44 -15 3 -23 2 -19 -2 4 -4 2 -13 -5 -21 -8 -11 -7 -12 6 -7 23 9 20 -1
-9 -30 -14 -14 -25 -31 -25 -39 0 -7 -7 -14 -15 -14 -8 0 -15 6 -15 14 0 7 -3
13 -8 13 -4 0 -13 9 -20 21 -8 12 -9 18 -3 14 6 -3 11 -1 11 4 0 6 -7 11 -16
11 -8 0 -12 5 -9 10 3 6 1 10 -5 10 -6 0 -8 5 -5 10 3 6 1 10 -5 10 -7 0 -8 6
-1 19 6 10 8 20 6 23 -13 13 33 3 50 -11 18 -15 19 -15 6 2 -13 16 -12 17 15
13 16 -3 36 -1 44 4 20 13 23 12 14 -2z m80 -30 c-5 -8 -2 -9 11 -4 14 5 16 4
7 -7 -7 -8 -10 -16 -8 -18 2 -2 -6 -4 -19 -4 -18 0 -21 3 -13 13 6 6 7 12 2
12 -5 0 -2 5 6 10 20 13 23 12 14 -2z m70 -63 c-4 -8 -8 -15 -10 -15 -2 0 -4
7 -4 15 0 8 4 15 10 15 5 0 7 -7 4 -15z m-134 -42 c0 -22 -2 -25 -10 -13 -9
13 -10 13 -10 0 0 -13 -1 -13 -10 0 -13 20 -13 33 0 25 6 -3 10 -1 10 4 0 6 5
11 10 11 6 0 10 -12 10 -27z"/>
<path d="M6530 12700 c0 -5 5 -10 10 -10 6 0 10 5 10 10 0 6 -4 10 -10 10 -5
0 -10 -4 -10 -10z"/>
<path d="M6538 12663 c7 -3 16 -2 19 1 4 3 -2 6 -13 5 -11 0 -14 -3 -6 -6z"/>
<path d="M6650 15158 c0 -6 7 -8 15 -4 16 6 21 -9 5 -19 -5 -3 -7 -12 -4 -20
5 -11 10 -12 27 -4 17 10 19 9 14 -5 -10 -25 6 -25 31 0 17 18 19 24 7 24 -8
0 -15 5 -15 10 0 6 -11 3 -25 -6 -24 -16 -25 -16 -23 6 2 15 -3 24 -14 25 -10
2 -18 -1 -18 -7z"/>
<path d="M6839 15139 l-24 -20 28 17 c15 9 27 18 27 20 0 8 -8 4 -31 -17z"/>
<path d="M6777 15136 c-4 -10 -1 -13 8 -9 8 3 12 9 9 14 -7 12 -11 11 -17 -5z"/>
<path d="M6789 15103 c-13 -16 -12 -17 4 -4 16 13 21 21 13 21 -2 0 -10 -8
-17 -17z"/>
<path d="M6749 15073 c-13 -16 -12 -17 4 -4 16 13 21 21 13 21 -2 0 -10 -8
-17 -17z"/>
<path d="M10070 14863 c-359 -17 -959 -76 -1355 -134 -205 -30 -612 -113 -750
-153 -481 -138 -685 -349 -750 -776 -18 -112 -20 -438 -5 -591 60 -605 241
-927 588 -1044 306 -104 1088 -93 2176 30 640 73 1228 192 1477 299 192 83
321 218 390 408 96 262 86 678 -26 1104 -141 536 -362 764 -810 833 -176 27
-623 39 -935 24z m550 -133 c17 -6 5 -7 -37 -5 -39 2 -60 -1 -57 -7 4 -7 0 -6
-12 0 -11 5 -54 10 -97 10 -43 0 -81 3 -84 6 -10 9 259 5 287 -4z m103 -7
c-13 -2 -33 -2 -45 0 -13 2 -3 4 22 4 25 0 35 -2 23 -4z m-797 -12 c-3 -5 -15
-7 -26 -4 -28 7 -25 13 6 13 14 0 23 -4 20 -9z m1336 -97 c72 -37 148 -96 188
-146 19 -24 25 -35 14 -25 -12 9 -24 14 -27 10 -4 -3 -7 1 -7 10 0 17 -20 19
-31 4 -3 -5 -9 -2 -12 7 -4 9 -3 15 1 13 4 -1 7 3 7 8 0 6 -3 9 -7 8 -5 -2 -7
2 -5 9 1 7 -5 13 -13 13 -8 1 -14 6 -13 12 1 6 -6 9 -17 6 -15 -4 -19 -2 -14
10 4 12 -5 19 -35 28 -23 7 -41 16 -41 20 0 5 -12 15 -27 23 -48 26 -15 17 39
-10z m-292 -450 c0 -2 -9 0 -20 6 -11 6 -20 13 -20 16 0 2 9 0 20 -6 11 -6 20
-13 20 -16z m50 -30 c0 -2 -9 0 -20 6 -11 6 -20 13 -20 16 0 2 9 0 20 -6 11
-6 20 -13 20 -16z m-14 -29 c119 -70 189 -177 235 -360 30 -120 33 -330 5
-420 -42 -138 -114 -228 -214 -265 -192 -73 -384 83 -463 375 -17 63 -22 110
-23 225 -1 128 2 154 23 219 35 107 98 186 181 229 60 31 70 34 136 30 55 -4
83 -11 120 -33z m84 -21 c0 -3 -13 4 -30 16 -16 12 -30 24 -30 26 0 3 14 -4
30 -16 17 -12 30 -24 30 -26z m619 -214 c11 -47 21 -103 25 -125 l5 -40 -13
35 c-8 19 -19 34 -26 32 -11 -2 -11 0 -2 11 10 11 7 20 -10 43 -15 20 -17 24
-5 15 17 -13 17 -12 12 15 -4 16 -8 40 -10 53 -2 13 -10 28 -17 32 -11 7 -11
9 0 9 7 0 10 5 6 12 -4 6 -8 21 -10 32 -1 12 -5 35 -8 51 -12 63 36 -94 53
-175z m-3234 1 c154 -73 256 -274 271 -536 12 -200 -37 -358 -141 -453 -126
-116 -293 -108 -418 21 -95 97 -146 225 -167 420 -17 152 3 294 56 398 60 120
148 177 274 178 52 1 77 -5 125 -28z m3060 -73 c5 4 5 1 1 -5 -4 -7 -2 -13 4
-13 7 0 9 -7 6 -15 -6 -18 24 -17 36 0 5 6 8 4 9 -5 0 -8 2 -23 4 -32 2 -10
-1 -21 -6 -24 -6 -3 -2 -12 8 -20 10 -8 14 -14 8 -13 -22 3 -27 -2 -15 -16 10
-12 16 -13 29 -3 13 10 14 10 4 -2 -11 -11 -8 -19 14 -42 15 -15 25 -28 22
-28 -2 0 -52 47 -109 106 -65 65 -94 99 -75 90 38 -20 69 -21 35 -1 -14 8 -19
14 -12 15 8 0 10 5 6 13 -6 9 -5 9 8 0 8 -7 19 -9 23 -5z m160 -258 c10 -11
16 -20 13 -20 -3 0 -13 9 -23 20 -10 11 -16 20 -13 20 3 0 13 -9 23 -20z m75
-76 c0 -30 -4 -30 -23 -1 -14 21 -13 23 4 24 14 1 19 -5 19 -23z m-1553 -504
c93 -33 61 -183 -67 -311 -203 -202 -509 -206 -732 -10 -57 50 -102 136 -92
175 16 65 96 86 142 38 15 -16 47 -50 72 -76 63 -68 127 -98 221 -104 109 -6
168 15 239 87 30 31 71 85 90 121 19 35 46 70 60 77 30 15 30 15 67 3z"/>
<path d="M12426 14298 c4 -15 2 -19 -7 -15 -8 2 -13 10 -11 16 1 7 -2 9 -9 6
-7 -5 -3 -15 12 -31 12 -13 26 -21 31 -18 5 3 7 2 6 -3 -3 -12 74 -163 84
-163 4 0 8 -7 8 -16 0 -8 5 -12 10 -9 6 4 7 12 3 18 -10 16 -13 37 -5 37 4 0
7 11 7 24 0 13 -4 22 -9 18 -5 -3 -6 3 -3 12 8 21 -47 132 -66 134 -7 0 -22 3
-35 6 -20 4 -22 2 -16 -16z"/>
<path d="M12260 14211 c0 -6 4 -13 10 -16 6 -3 7 1 4 9 -7 18 -14 21 -14 7z"/>
<path d="M12231 14204 c-1 -6 4 -36 9 -65 84 -431 151 -943 166 -1261 4 -82 9
-148 12 -148 2 0 33 20 67 45 124 88 187 228 206 454 10 125 5 326 -11 392 -7
29 -8 24 -9 -33 -1 -37 -5 -69 -10 -72 -5 -3 -7 -15 -4 -26 8 -28 -33 -151
-60 -182 -53 -61 -119 -57 -180 11 -40 44 -52 97 -62 271 -5 79 -4 101 5 90 9
-13 10 -12 6 5 -3 11 -17 75 -31 143 -40 190 -102 414 -104 376z"/>
<path d="M5267 13645 c-20 -7 -44 -19 -53 -26 -20 -16 -111 -154 -119 -180 -4
-11 -10 -17 -14 -15 -4 3 -8 0 -9 -7 -1 -7 -7 -46 -13 -87 -21 -144 4 -590 32
-590 5 0 9 6 10 13 0 6 11 -18 24 -55 57 -164 140 -274 226 -300 32 -9 46 -8
83 6 77 29 129 124 162 292 25 127 25 407 0 524 -65 303 -196 472 -329 425z"/>
<path d="M6436 13615 c4 -8 8 -15 10 -15 2 0 4 7 4 15 0 8 -4 15 -10 15 -5 0
-7 -7 -4 -15z"/>
<path d="M6439 13558 c0 -2 -3 -16 -5 -33 -5 -28 -4 -29 10 -10 9 13 11 22 4
26 -6 4 -5 9 3 12 10 4 10 6 2 6 -7 1 -13 0 -14 -1z"/>
<path d="M12478 13354 c6 -3 12 -12 12 -20 0 -12 3 -12 14 -2 17 16 13 21 -17
24 -12 2 -16 0 -9 -2z"/>
<path d="M5090 12721 c0 -6 4 -13 10 -16 6 -3 7 1 4 9 -7 18 -14 21 -14 7z"/>
<path d="M6602 11899 c-10 -16 -11 -24 -2 -33 8 -8 13 -7 20 4 5 8 6 18 4 22
-3 4 0 8 6 8 6 0 8 5 5 10 -9 15 -19 12 -33 -11z"/>
<path d="M6658 11793 c6 -2 9 -10 6 -15 -4 -7 -2 -8 5 -4 13 9 5 26 -12 25 -9
0 -8 -2 1 -6z"/>
<path d="M9178 11503 c7 -3 16 -2 19 1 4 3 -2 6 -13 5 -11 0 -14 -3 -6 -6z"/>
<path d="M7348 11493 c7 -3 16 -2 19 1 4 3 -2 6 -13 5 -11 0 -14 -3 -6 -6z"/>
<path d="M7423 11483 c9 -2 23 -2 30 0 6 3 -1 5 -18 5 -16 0 -22 -2 -12 -5z"/>
<path d="M7239 11463 c-13 -16 -12 -17 4 -4 16 13 21 21 13 21 -2 0 -10 -8
-17 -17z"/>
<path d="M7494 11473 c3 -4 26 -6 49 -5 28 2 37 -1 28 -7 -12 -8 -12 -10 0
-14 8 -2 2 -3 -13 -1 -15 2 -30 -1 -33 -6 -3 -6 1 -7 9 -4 9 4 18 -1 22 -10 3
-9 10 -16 16 -16 5 0 6 4 3 10 -4 6 2 7 18 1 15 -6 29 -6 38 1 11 8 10 9 -3 4
-13 -4 -22 3 -33 24 -14 27 -21 30 -62 30 -25 0 -43 -3 -39 -7z"/>
<path d="M8703 11473 c9 -2 25 -2 35 0 9 3 1 5 -18 5 -19 0 -27 -2 -17 -5z"/>
<path d="M8611 11467 c2 -1 13 -9 24 -17 19 -14 19 -14 6 3 -7 9 -18 17 -24
17 -6 0 -8 -1 -6 -3z"/>
<path d="M7186 11431 c-3 -5 1 -11 9 -15 8 -3 15 -1 15 4 0 13 -18 22 -24 11z"/>
<path d="M8436 11418 c3 -5 10 -6 15 -3 13 9 11 12 -6 12 -8 0 -12 -4 -9 -9z"/>
<path d="M7339 11368 c-6 -13 -8 -20 -4 -16 5 4 15 2 24 -4 13 -10 14 -10 4 1
-6 7 -9 20 -6 27 8 23 -5 16 -18 -8z"/>
<path d="M7376 11377 c3 -10 9 -15 12 -12 3 3 0 11 -7 18 -10 9 -11 8 -5 -6z"/>
<path d="M8089 11363 c-13 -16 -12 -17 4 -4 16 13 21 21 13 21 -2 0 -10 -8
-17 -17z"/>
<path d="M8310 11365 c7 -8 18 -15 24 -14 7 0 6 2 -2 6 -6 2 -10 9 -6 14 3 5
-2 9 -12 9 -13 0 -14 -3 -4 -15z"/>
<path d="M8008 11353 c7 -3 16 -2 19 1 4 3 -2 6 -13 5 -11 0 -14 -3 -6 -6z"/>
<path d="M8100 11331 c0 -6 4 -13 10 -16 6 -3 7 1 4 9 -7 18 -14 21 -14 7z"/>
<path d="M7388 11293 c6 -2 10 -8 8 -12 -3 -4 1 -8 9 -8 8 0 15 4 15 8 0 7
-26 20 -38 18 -4 0 -1 -3 6 -6z"/>
<path d="M7310 11280 c0 -5 5 -10 11 -10 5 0 7 5 4 10 -3 6 -8 10 -11 10 -2 0
-4 -4 -4 -10z"/>
<path d="M8089 11289 c-6 -31 -5 -40 9 -51 13 -11 14 -11 8 0 -5 8 -1 18 10
27 11 7 16 17 11 21 -4 4 -7 2 -7 -6 0 -10 -3 -10 -15 0 -8 7 -15 11 -16 9z"/>
<path d="M7338 11264 c-3 -11 1 -25 9 -32 15 -15 17 -1 4 32 -8 20 -8 20 -13
0z"/>
<path d="M7360 11261 c0 -9 24 -21 41 -21 6 0 7 5 4 10 -4 6 -11 8 -16 5 -5
-4 -9 -1 -9 4 0 6 -4 11 -10 11 -5 0 -10 -4 -10 -9z"/>
<path d="M8202 11248 c2 -7 -2 -12 -8 -11 -6 1 -11 -4 -11 -12 0 -7 6 -11 14
-8 7 3 13 10 13 15 0 6 7 8 15 4 22 -8 18 2 -5 14 -16 8 -20 8 -18 -2z"/>
<path d="M8043 11214 c-1 -35 -1 -35 11 -13 7 13 11 30 8 37 -8 24 -18 12 -19
-24z"/>
<path d="M7396 11218 c3 -5 10 -6 15 -3 13 9 11 12 -6 12 -8 0 -12 -4 -9 -9z"/>
<path d="M9696 11207 c3 -10 9 -15 12 -12 3 3 0 11 -7 18 -10 9 -11 8 -5 -6z"/>
<path d="M8065 11191 c-3 -5 -2 -12 3 -15 5 -3 9 1 9 9 0 17 -3 19 -12 6z"/>
<path d="M7820 10736 c0 -2 8 -10 18 -17 15 -13 16 -12 3 4 -13 16 -21 21 -21
13z"/>
<path d="M7804 10688 c-4 -7 -4 -10 1 -6 4 4 14 0 21 -10 12 -16 13 -16 10 2
-3 24 -21 32 -32 14z"/>
<path d="M7816 10628 c3 -4 9 -8 15 -8 5 0 9 4 9 8 0 5 -7 9 -15 9 -8 0 -12
-4 -9 -9z"/>
<path d="M7911 10497 c-13 -21 -12 -21 5 -5 10 10 16 20 13 22 -3 3 -11 -5
-18 -17z"/>
<path d="M7690 10484 c0 -8 5 -12 10 -9 6 3 10 10 10 16 0 5 -4 9 -10 9 -5 0
-10 -7 -10 -16z"/>
<path d="M7810 10476 c0 -2 8 -10 18 -17 15 -13 16 -12 3 4 -13 16 -21 21 -21
13z"/>
<path d="M7846 10408 c3 -5 10 -6 15 -3 13 9 11 12 -6 12 -8 0 -12 -4 -9 -9z"/>
<path d="M6215 10370 c-3 -5 -1 -10 4 -10 6 0 11 5 11 10 0 6 -2 10 -4 10 -3
0 -8 -4 -11 -10z"/>
<path d="M7770 10360 c-9 -6 -10 -10 -3 -10 6 0 15 5 18 10 8 12 4 12 -15 0z"/>
<path d="M7800 10315 c0 -8 2 -15 4 -15 2 0 6 7 10 15 3 8 1 15 -4 15 -6 0
-10 -7 -10 -15z"/>
<path d="M6080 10200 c0 -5 -6 -10 -14 -10 -10 0 -13 -8 -11 -27 l4 -28 -12
26 c-10 22 -15 24 -30 15 -14 -9 -20 -8 -27 4 -8 13 -10 12 -10 -2 0 -11 8
-18 19 -18 11 0 22 -4 25 -8 4 -7 -13 -12 -56 -15 -10 -1 -19 -6 -22 -13 -3
-7 5 -10 20 -8 13 1 22 -2 19 -6 -3 -5 -12 -7 -19 -4 -8 3 -21 -5 -31 -18
l-16 -23 7 30 c4 17 11 41 16 54 13 35 2 38 -15 4 -119 -230 -134 -512 -40
-745 61 -152 213 -328 349 -404 122 -68 277 -113 395 -114 l46 0 1 -180 c2
-298 38 -596 101 -843 69 -266 158 -434 320 -600 199 -205 422 -288 911 -341
285 -31 1032 -58 1044 -37 5 8 -10 11 -48 11 -34 0 -56 5 -59 13 -3 9 -7 9
-18 1 -16 -13 -102 -8 -107 6 -5 13 -42 13 -42 -1 0 -5 6 -7 13 -3 9 5 9 3 -1
-7 -11 -12 -14 -12 -22 1 -9 13 -11 13 -20 0 -8 -12 -10 -11 -10 8 0 13 -6 22
-15 22 -9 0 -12 -6 -8 -17 4 -11 3 -14 -5 -9 -7 4 -12 2 -12 -3 0 -6 -15 -11
-32 -11 -33 0 -60 11 -59 24 3 20 -1 26 -14 26 -12 0 -13 4 -5 19 5 11 10 28
9 38 0 10 -3 13 -6 6 -2 -7 -19 -13 -36 -13 -21 0 -28 3 -19 9 11 7 11 9 -2
14 -9 4 -16 1 -16 -5 0 -6 -3 -9 -6 -5 -3 3 1 16 10 29 9 12 16 18 16 13 0 -5
5 -4 11 2 14 14 41 5 32 -11 -3 -6 5 -1 19 12 13 12 26 21 29 20 2 -2 1 1 -3
6 -5 6 -14 2 -24 -10 -14 -18 -14 -17 -2 6 7 14 11 29 10 33 -1 5 2 5 8 2 7
-4 14 2 17 14 6 23 11 25 33 11 10 -6 11 -10 3 -10 -7 0 -13 -4 -13 -10 0 -5
9 -10 21 -10 11 0 17 5 14 10 -3 6 1 10 10 10 23 0 14 20 -16 38 l-24 14 25
-21 c28 -23 15 -28 -23 -8 -21 11 -24 16 -14 27 7 7 8 11 2 8 -5 -3 -19 -2
-30 3 -16 6 -13 8 15 9 19 1 44 2 55 1 17 -1 17 1 -5 13 -16 10 -19 16 -10 16
12 0 11 3 -3 11 -9 6 -15 14 -12 20 9 14 -2 11 -19 -7 -9 -8 -16 -11 -16 -5 0
22 -20 10 -21 -11 0 -15 -3 -18 -6 -8 -7 17 -33 45 -33 35 0 -3 6 -18 14 -33
14 -27 13 -28 -10 -30 -18 -1 -23 2 -18 11 4 6 3 9 -1 4 -5 -4 -10 -18 -12
-30 -2 -15 0 -18 6 -9 7 11 9 11 14 -2 5 -13 -1 -16 -33 -14 -22 1 -40 5 -40
10 0 5 -5 6 -10 3 -6 -4 -18 -1 -26 6 -11 9 -18 8 -34 -6 -20 -18 -20 -19 7
-48 16 -16 21 -28 13 -25 -8 3 -21 -1 -28 -9 -15 -14 -36 -18 -28 -4 3 4 -1
17 -8 27 -10 14 -11 23 -4 32 8 10 7 11 -8 5 -17 -6 -17 -5 -5 10 11 14 11 17
0 17 -11 0 -11 2 1 10 12 8 10 10 -10 10 -18 0 -21 3 -12 9 8 4 14 12 15 17 1
5 5 8 9 7 4 -2 5 5 2 15 -5 16 -5 16 6 -1 6 -9 9 -21 6 -26 -3 -5 0 -14 8 -20
10 -8 17 -6 31 9 10 11 25 20 34 21 12 0 11 3 -4 9 -18 8 -17 9 8 9 24 1 27
-2 22 -20 -5 -14 -4 -19 4 -15 7 5 8 1 4 -10 -5 -13 -2 -15 15 -10 15 5 22 2
25 -11 4 -14 5 -13 6 5 0 12 -3 22 -9 22 -5 0 -7 7 -4 15 4 8 10 13 14 10 4
-3 13 1 19 9 8 10 8 16 -3 25 -12 10 -13 8 -9 -11 l6 -23 -20 20 c-13 13 -17
24 -11 31 5 7 10 26 11 43 1 17 7 31 12 31 6 0 3 5 -5 10 -11 8 -7 9 14 4 22
-5 27 -4 21 6 -5 9 -4 11 4 6 6 -4 8 -13 4 -19 -4 -7 -9 -20 -10 -30 -3 -16
-1 -16 22 -1 19 12 24 13 20 3 -3 -8 4 -20 15 -27 12 -7 20 -8 20 -2 0 5 5 10
11 10 6 0 9 -7 5 -15 -5 -13 -2 -14 15 -4 16 8 23 8 29 -1 5 -8 9 -7 14 5 3
10 12 15 21 11 8 -3 17 0 21 6 4 7 3 8 -4 4 -7 -4 -12 -2 -12 3 0 14 13 14 28
-1 19 -19 15 -41 -5 -33 -14 5 -15 3 -7 -5 15 -15 50 -8 46 9 -2 8 3 11 11 8
8 -3 20 0 26 6 9 9 14 8 21 -3 8 -12 10 -11 10 7 0 12 9 28 21 36 19 14 14 16
-68 21 -240 18 -317 28 -460 61 -13 3 -23 1 -23 -5 0 -5 3 -9 8 -9 20 3 45 -2
38 -8 -12 -12 -76 -31 -76 -22 0 5 -7 9 -15 9 -8 0 -14 -3 -14 -7 5 -28 -3
-53 -16 -53 -9 0 -15 -10 -16 -22 -1 -17 -2 -19 -6 -5 -6 22 -12 21 -48 -8
l-30 -25 30 -1 c27 -2 28 -2 5 -6 -14 -3 -32 -10 -40 -16 -13 -10 -13 -10 -3
3 8 11 9 20 1 30 -8 12 -9 12 -4 -3 3 -11 0 -20 -10 -24 -12 -4 -13 -8 -3 -14
19 -11 -8 -40 -35 -38 -39 3 -46 -1 -46 -22 0 -11 -6 -27 -14 -35 -8 -8 -12
-23 -8 -36 5 -21 4 -22 -11 -9 -15 12 -17 12 -11 -3 6 -15 -3 -13 -47 10 -69
34 -150 97 -214 165 -27 30 -38 43 -22 29 26 -23 63 -37 52 -20 -3 4 -2 16 1
25 6 14 11 12 37 -12 17 -15 25 -20 18 -11 -10 14 -9 19 13 33 21 14 26 25 26
61 0 23 5 46 10 49 6 3 10 1 10 -4 0 -6 6 -11 14 -11 8 0 17 -6 20 -12 4 -7 4
-3 2 9 -3 15 0 20 10 16 8 -3 18 5 24 18 5 13 14 31 19 39 5 8 12 23 15 33 3
9 11 17 18 17 9 0 8 -3 -2 -10 -9 -6 -10 -10 -3 -10 6 0 15 5 18 10 5 8 11 7
21 -1 8 -6 17 -9 21 -5 3 3 1 6 -5 6 -7 0 -12 5 -12 10 0 7 7 7 23 0 19 -9 20
-9 3 2 -10 7 -39 26 -64 42 -104 68 -225 202 -284 314 -16 31 -26 46 -22 32 4
-14 7 -31 7 -37 0 -7 4 -13 8 -13 5 0 6 -7 2 -16 -4 -11 -15 -15 -35 -12 -16
3 -31 1 -34 -4 -3 -5 -10 -6 -15 -2 -15 9 -6 -20 11 -33 13 -11 13 -12 -2 -13
-10 0 -18 -4 -18 -10 0 -5 -4 -10 -10 -10 -5 0 -7 6 -4 13 3 8 -2 20 -11 27
-8 7 -15 9 -15 4 0 -5 -5 -2 -10 6 -7 12 -10 8 -11 -15 0 -16 -2 -38 -4 -47
-2 -11 3 -18 12 -18 13 0 13 3 3 15 -14 16 -3 20 19 6 7 -5 10 -14 6 -21 -5
-7 -1 -11 11 -10 31 4 45 1 40 -8 -5 -9 -42 -8 -68 2 -10 3 -25 8 -33 11 -12
3 -13 10 -5 31 6 15 8 30 4 33 -4 3 -9 0 -11 -7 -3 -6 -10 -9 -16 -5 -8 4 -7
1 1 -9 7 -9 12 -20 11 -24 -4 -21 2 -34 15 -34 7 0 27 -7 42 -15 20 -10 23
-15 12 -15 -10 0 -18 -5 -18 -11 0 -5 -4 -7 -10 -4 -5 3 -10 1 -10 -4 0 -6 -6
-11 -14 -11 -8 0 -12 -8 -9 -23 3 -13 -2 -29 -10 -35 -12 -10 -19 0 -45 61
-40 96 -85 255 -77 276 5 13 7 14 16 1 8 -12 9 -10 4 6 -4 17 0 23 20 26 17 4
24 1 22 -6 -3 -6 -10 -10 -16 -8 -6 1 -11 -5 -11 -14 0 -13 3 -14 13 -5 8 6
17 8 20 4 4 -3 8 5 8 18 1 17 3 19 6 7 5 -21 18 -10 45 38 l17 31 -24 -4 c-18
-4 -23 -1 -21 11 1 9 5 15 8 14 3 -2 13 4 23 12 15 12 17 12 10 1 -6 -10 -4
-12 4 -7 7 5 10 14 7 22 -3 7 0 16 6 20 7 4 8 3 4 -4 -4 -7 -2 -12 3 -12 6 0
11 6 11 13 0 9 2 9 9 -1 7 -11 10 -10 15 3 9 24 8 27 -6 19 -8 -5 -7 0 2 10
14 18 15 18 21 -5 15 -54 6 13 -15 116 -13 61 -23 111 -21 113 1 1 22 -5 46
-14 24 -8 88 -26 142 -38 97 -22 98 -23 141 -75 65 -79 140 -137 241 -186 127
-62 204 -76 425 -80 139 -2 162 -1 90 4 -95 8 -160 25 -160 42 0 5 8 9 18 9
14 0 15 2 2 9 -8 6 -18 7 -22 5 -4 -3 -8 -1 -8 5 0 5 10 11 23 13 12 2 21 9
20 16 -2 6 2 12 8 12 5 0 8 4 5 9 -3 5 6 12 19 15 14 4 23 11 20 16 -3 6 0 10
7 10 7 1 3 9 -11 20 -13 11 -18 20 -11 20 6 0 20 10 31 23 14 16 17 17 13 5
-4 -11 -1 -18 7 -18 8 0 5 -6 -7 -15 -18 -14 -17 -14 9 -4 26 12 37 29 17 29
-15 0 -12 36 4 49 12 10 14 8 12 -13 -2 -15 0 -26 4 -26 9 0 24 31 21 43 0 4
14 7 33 5 30 -2 32 -4 22 -20 -6 -10 -16 -16 -23 -14 -6 3 -17 -3 -25 -12 -8
-10 -9 -13 -1 -9 7 5 17 -2 25 -16 l13 -24 20 20 c15 15 16 19 4 14 -9 -3 -16
0 -16 8 0 7 8 10 19 7 15 -4 18 2 18 31 0 28 5 36 23 41 32 8 39 7 32 -4 -8
-13 8 -13 21 -1 5 5 20 11 34 14 14 2 -29 5 -95 6 -160 1 -341 25 -443 57
-156 50 -301 156 -367 269 -40 69 -75 188 -81 283 -7 91 8 233 28 278 9 19 8
28 -7 44 -10 11 -16 22 -13 25 3 3 11 -1 18 -10 10 -12 19 -2 55 70 53 106
114 185 186 243 43 35 54 48 45 58 -22 24 -141 -51 -246 -154 l-95 -94 -50 17
c-27 9 -92 37 -144 62 l-94 45 6 70 c5 59 4 68 -7 53 -9 -13 -20 -16 -39 -11
-26 6 -32 0 -28 -31 2 -13 -24 -12 -36 2 -4 4 -2 5 6 0 10 -6 12 -4 7 4 -5 8
-12 9 -20 2 -8 -6 -19 -3 -36 11 -14 11 -19 16 -11 12 9 -4 12 -3 7 4 -4 6
-12 9 -19 6 -16 -6 -139 94 -131 107 3 5 0 8 -8 7 -7 -2 -12 4 -10 12 2 8 0
12 -4 7 -4 -4 -49 33 -99 83 -113 110 -159 133 -265 133 -129 0 -250 -64 -337
-178 -61 -81 -85 -151 -91 -272 -2 -57 -9 -103 -14 -103 -5 0 -39 15 -75 32
-116 58 -220 170 -258 278 -22 62 -43 179 -37 203 3 14 1 18 -6 13 -9 -5 -12
7 -13 41 -4 189 -5 183 11 178 9 -3 7 1 -4 10 -11 8 -17 18 -13 21 4 4 15 1
24 -7 15 -11 15 -10 -1 9 -21 24 -26 27 -26 12z m1821 -969 c0 -14 1 -14 7 2
7 16 9 16 25 -4 14 -16 16 -24 6 -35 -15 -18 -29 -18 -44 2 -11 15 -12 15 -12
-2 1 -58 -3 -73 -19 -67 -8 3 -13 12 -9 21 4 12 3 13 -9 3 -12 -10 -15 -9 -13
8 0 11 4 18 8 15 4 -2 9 3 12 11 4 10 1 12 -10 8 -12 -5 -14 -3 -8 7 6 10 4
12 -8 7 -21 -8 -22 3 -2 29 13 16 14 16 9 2 -8 -24 8 -23 24 2 14 22 42 17 43
-9z m126 -678 c-4 -3 -2 -12 4 -20 7 -8 8 -13 1 -13 -12 0 -23 26 -15 34 4 3
9 6 11 6 3 0 2 -3 -1 -7z m30 -48 c-8 -19 13 -32 23 -14 12 18 49 -28 42 -53
-4 -15 -7 -16 -20 -6 -12 10 -14 10 -8 1 4 -8 2 -13 -4 -13 -7 0 -5 -7 4 -16
23 -23 20 -27 -8 -9 -32 21 -64 104 -45 116 19 12 22 11 16 -6z m-687 -38 c31
-27 37 -67 12 -74 -13 -3 -19 -15 -20 -41 -2 -20 -4 -38 -6 -39 -1 -2 -7 38
-12 87 -5 50 -7 90 -4 90 3 0 16 -10 30 -23z m995 -142 c0 -11 3 -26 8 -32 6
-8 6 -13 -1 -13 -6 0 -13 6 -16 13 -3 6 -5 3 -3 -8 1 -11 7 -20 14 -20 6 0 15
-4 20 -9 5 -5 3 -6 -4 -2 -8 4 -13 2 -13 -5 0 -8 -7 -6 -19 5 -15 13 -20 14
-24 4 -2 -7 -4 -1 -3 14 0 14 5 24 10 20 5 -3 7 2 3 11 -4 12 -2 14 11 10 16
-6 16 -5 0 13 -16 19 -16 20 1 20 12 0 18 -7 16 -21z m-62 -55 c-3 -11 0 -20
6 -20 6 0 11 -7 11 -15 0 -8 8 -15 18 -15 14 0 15 2 2 10 -8 5 -11 12 -8 15 4
4 13 1 21 -6 12 -11 12 -16 -2 -30 -9 -9 -26 -20 -38 -23 -13 -4 -23 -11 -23
-16 0 -9 19 -8 37 3 13 8 43 -1 43 -14 0 -5 -12 -6 -26 -3 -17 5 -25 3 -21 -3
13 -22 -43 -10 -64 13 -33 36 -35 63 -2 33 l26 -24 -14 25 c-8 13 -21 30 -29
37 -12 9 -7 9 22 0 22 -7 32 -14 25 -19 -6 -4 -8 -10 -4 -14 10 -11 31 12 23
25 -4 6 -14 11 -22 11 -8 0 -14 5 -14 11 0 5 4 8 9 5 5 -3 11 3 14 14 3 11 7
20 10 20 3 0 3 -9 0 -20z m437 4 c0 -2 -11 -3 -24 -2 -14 1 -23 5 -20 9 4 7
44 0 44 -7z m50 -44 c0 -5 -4 -10 -10 -10 -5 0 -10 5 -10 10 0 6 5 10 10 10 6
0 10 -4 10 -10z m-220 -60 c0 -5 -2 -10 -4 -10 -3 0 -8 5 -11 10 -3 6 -1 10 4
10 6 0 11 -4 11 -10z m-230 -56 c0 -2 -9 0 -20 6 -11 6 -20 13 -20 16 0 2 9 0
20 -6 11 -6 20 -13 20 -16z m170 -84 c8 -5 11 -10 5 -10 -5 0 -17 5 -25 10 -8
5 -10 10 -5 10 6 0 17 -5 25 -10z m-908 -232 c-7 -7 -12 -8 -12 -2 0 14 12 26
19 19 2 -3 -1 -11 -7 -17z m65 -94 c-3 -3 -12 -4 -19 -1 -8 3 -5 6 6 6 11 1
17 -2 13 -5z m-84 -59 c-3 -9 -8 -14 -10 -11 -3 3 -2 9 2 15 9 16 15 13 8 -4z
m464 -91 c-3 -3 -12 -4 -19 -1 -8 3 -5 6 6 6 11 1 17 -2 13 -5z m-287 -114 c0
-5 -8 -10 -17 -10 -15 0 -16 2 -3 10 19 12 20 12 20 0z m-85 -57 l18 -28 -21
19 c-12 11 -22 23 -22 28 0 14 7 9 25 -19z m832 -9 c2 -13 1 -15 -4 -4 -3 8
-11 19 -17 23 -7 6 -6 7 4 4 8 -2 16 -12 17 -23z m-42 -4 c-3 -5 -11 -10 -16
-10 -6 0 -7 5 -4 10 3 6 11 10 16 10 6 0 7 -4 4 -10z m126 -13 c-10 -9 -11 -8
-5 6 3 10 9 15 12 12 3 -3 0 -11 -7 -18z m-364 -52 c0 -8 -4 -12 -9 -9 -5 3
-6 10 -3 15 9 13 12 11 12 -6z m-32 -65 c-27 -12 -43 -12 -25 0 8 5 22 9 30 9
10 0 8 -3 -5 -9z m-89 -84 c9 -20 9 -26 -2 -30 -8 -3 -11 0 -7 9 3 8 -2 18
-11 21 -9 3 -13 10 -10 15 9 15 18 10 30 -15z m-31 -15 c-9 -8 -36 -10 -30 -2
2 4 11 8 20 8 8 0 13 -3 10 -6z m455 -23 c0 -4 -4 -8 -9 -8 -6 0 -12 4 -15 8
-3 5 1 9 9 9 8 0 15 -4 15 -9z m62 -11 c-4 -14 -7 -16 -13 -5 -12 19 -11 25 5
25 8 0 11 -8 8 -20z m-132 -47 c0 -6 -5 -10 -11 -10 -5 0 -7 -6 -3 -12 5 -9 2
-9 -9 1 -9 7 -17 10 -17 6 0 -4 -7 -2 -15 5 -13 11 -13 14 2 25 19 14 53 3 53
-15z m-101 -17 c-6 -7 -8 -13 -3 -13 4 0 -1 -7 -12 -16 -16 -13 -16 -15 -1
-10 26 8 20 -7 -8 -21 -19 -8 -23 -8 -18 0 4 7 8 20 9 31 0 11 6 22 13 24 6 2
9 7 7 11 -3 4 1 8 9 8 11 0 12 -4 4 -14z m-55 -42 c3 -5 -3 -11 -15 -14 -16
-4 -18 -3 -8 9 13 16 16 17 23 5z m248 -68 c-6 -2 -10 -9 -6 -14 3 -5 0 -9 -5
-9 -12 0 -14 13 -4 23 3 4 11 7 17 6 6 0 5 -3 -2 -6z m48 -18 c0 -18 -26 -20
-36 -3 -5 8 -2 9 9 5 10 -3 17 -2 17 3 0 6 2 10 5 10 3 0 5 -7 5 -15z"/>
<path d="M8080 8470 c0 -13 18 -22 24 -11 3 5 -1 11 -9 15 -8 3 -15 1 -15 -4z"/>
<path d="M8060 8456 c0 -8 4 -17 9 -20 5 -4 7 3 4 14 -6 23 -13 26 -13 6z"/>
<path d="M7381 9911 c-6 -10 -8 -21 -5 -23 2 -3 -18 -8 -46 -12 -34 -5 -50
-11 -47 -19 5 -16 38 -22 35 -7 -2 7 9 14 23 16 21 3 28 -1 32 -18 8 -28 2
-34 -18 -18 -8 7 -22 10 -30 6 -13 -4 -14 -10 -5 -26 8 -16 8 -20 -3 -20 -8 0
-19 10 -25 23 -8 17 -11 18 -11 5 -1 -10 -9 -18 -18 -18 -10 0 -14 4 -8 8 15
11 16 29 1 29 -15 0 -14 -30 2 -50 7 -7 8 -18 4 -22 -4 -5 -2 -5 4 -2 6 3 22
0 37 -8 22 -11 26 -11 31 1 4 10 2 13 -7 8 -6 -4 -4 2 6 13 9 11 14 23 10 26
-10 10 20 8 37 -3 32 -20 65 52 40 90 -8 13 -10 13 -10 1 0 -11 -3 -12 -11 -4
-13 13 -3 36 12 28 5 -4 9 -1 9 4 0 18 -29 12 -39 -8z"/>
<path d="M7240 9871 c0 -6 4 -13 10 -16 6 -3 7 1 4 9 -7 18 -14 21 -14 7z"/>
<path d="M9079 9708 c-58 -90 -59 -93 -37 -100 62 -17 63 -15 85 92 11 55 18
100 16 100 -2 0 -31 -42 -64 -92z"/>
<path d="M9970 9466 c72 -22 97 -33 158 -73 31 -20 60 -37 64 -38 3 0 10 -4
15 -9 5 -5 2 -6 -7 -1 -8 4 -1 -6 15 -22 17 -17 33 -26 36 -20 10 14 31 -2 25
-19 -3 -8 -1 -14 4 -14 12 0 25 -48 21 -74 -2 -12 1 -16 10 -11 8 5 10 4 5 -3
-4 -6 1 -37 10 -67 22 -79 16 -220 -15 -297 -31 -81 -104 -173 -179 -228 -71
-52 -138 -79 -221 -90 l-56 -7 70 -2 c209 -3 379 96 465 273 56 115 68 210 40
331 -11 50 -52 143 -75 170 -9 11 -14 15 -11 9 3 -6 -1 -11 -9 -11 -12 0 -12
3 -3 15 10 12 1 25 -51 75 -89 83 -170 120 -275 124 l-81 3 45 -14z m318 -141
c-3 -3 -9 2 -12 12 -6 14 -5 15 5 6 7 -7 10 -15 7 -18z"/>
<path d="M13462 8893 c-12 -22 -31 -82 -37 -114 -3 -13 -9 -25 -15 -27 -5 -2
-10 -8 -10 -14 0 -20 -75 -118 -87 -113 -7 2 -15 0 -19 -6 -3 -6 -17 -14 -30
-19 -17 -7 -22 -14 -17 -27 3 -10 3 -15 -2 -11 -8 8 -50 -39 -50 -56 0 -5 -7
-11 -15 -13 -13 -4 -13 -3 0 7 13 10 13 11 0 7 -8 -2 -15 -8 -15 -14 0 -5 -7
-17 -16 -26 -13 -12 -19 -13 -29 -4 -9 8 -11 8 -7 1 8 -13 -20 -27 -34 -18 -5
3 -9 2 -9 -3 0 -4 -12 -8 -27 -9 -64 -1 -152 -16 -172 -28 -10 -6 -12 -5 -7 2
5 8 -1 12 -16 12 -18 0 -20 -2 -8 -10 22 -14 1 -12 -58 5 -29 9 -50 20 -47 25
3 6 0 7 -8 4 -16 -6 -82 28 -82 42 0 5 -16 24 -35 43 -19 18 -34 38 -32 43 1
5 -2 7 -6 4 -5 -3 -17 3 -27 14 -10 11 -21 17 -26 15 -4 -3 -22 17 -40 45 -18
27 -36 50 -41 50 -4 0 -8 9 -8 19 0 11 -5 21 -11 23 -7 2 -17 19 -23 38 -6 19
-19 34 -28 36 -17 2 -25 -16 -12 -28 3 -3 7 -34 9 -69 14 -239 185 -457 401
-513 88 -23 154 -20 242 10 127 43 191 82 279 169 69 68 90 97 128 176 70 147
111 339 73 347 -9 2 -21 -5 -26 -15z"/>
<path d="M9776 8692 c-21 -23 -37 -45 -34 -48 3 -3 13 3 22 12 9 9 18 15 20
13 2 -2 -3 -32 -11 -66 -11 -48 -19 -64 -36 -70 -27 -9 -76 -10 -71 -2 2 4 -6
9 -17 12 -14 4 -45 -10 -97 -44 -69 -45 -110 -75 -73 -54 9 5 12 4 7 -3 -3 -6
2 -15 11 -21 16 -9 16 -10 1 -11 -9 0 -18 6 -21 13 -2 6 -8 9 -11 5 -9 -7 29
-48 45 -48 19 0 41 -30 36 -50 -3 -11 -1 -18 3 -15 10 6 7 -31 -4 -57 -4 -9
-18 -19 -31 -22 -12 -3 -25 -14 -28 -25 -3 -13 -12 -18 -31 -16 -14 2 -28 -1
-32 -6 -3 -5 -10 -6 -16 -3 -7 5 -8 2 -3 -6 4 -7 2 -16 -6 -21 -20 -13 -41
-11 -33 3 4 7 3 8 -5 4 -6 -4 -9 -12 -6 -17 4 -5 0 -11 -7 -13 -7 -2 -22 -7
-33 -12 -30 -11 -48 -11 -64 1 -11 7 -13 7 -8 -1 4 -7 -2 -10 -18 -6 -14 2
-25 9 -25 14 0 5 4 7 9 3 5 -3 12 -1 16 5 3 5 -1 10 -9 10 -9 0 -16 7 -16 15
0 8 -4 15 -10 15 -5 0 -10 -4 -10 -10 0 -5 -7 -6 -17 -3 -12 5 -14 3 -8 -7 6
-9 4 -11 -5 -5 -10 6 -9 11 4 21 11 8 13 14 6 19 -5 3 -8 11 -4 16 3 6 12 3
20 -8 14 -17 15 -17 12 1 -2 10 -13 22 -25 27 -20 7 -23 5 -23 -18 0 -23 -2
-24 -17 -12 -11 10 -14 10 -9 2 4 -7 4 -13 -1 -14 -4 0 -16 -2 -25 -4 -12 -2
-15 3 -13 17 3 12 1 17 -3 14 -4 -4 -7 -13 -7 -19 -1 -7 -7 -11 -14 -9 -7 1
-10 -2 -6 -8 3 -5 3 -15 -1 -22 -12 -19 -14 -58 -3 -58 5 0 9 -4 9 -9 0 -5 -8
-8 -17 -6 -10 1 -17 8 -15 16 3 10 0 10 -13 -1 -8 -7 -18 -10 -22 -6 -3 3 -1
6 6 6 7 0 9 5 6 10 -3 6 0 10 9 10 15 0 16 23 2 37 -4 4 -6 2 -4 -6 2 -8 -7
-20 -19 -26 -13 -7 -22 -14 -20 -16 1 -2 -4 2 -10 10 -7 8 -13 11 -13 5 0 -5
-5 -2 -10 6 -9 13 -10 13 -10 -1 0 -8 5 -20 11 -26 8 -8 8 -16 0 -30 -10 -17
-10 -17 -11 4 0 12 -4 25 -10 28 -6 4 -9 -4 -7 -17 1 -18 -3 -23 -18 -21 -17
1 -18 0 -5 -10 23 -18 24 -54 3 -60 -47 -12 39 -5 102 8 104 22 104 22 94 -22
-7 -31 -39 -236 -54 -343 -21 -149 -39 -257 -44 -265 -8 -12 -8 -22 3 -52 7
-23 62 -41 91 -29 8 3 15 2 15 -3 0 -4 36 -13 80 -20 44 -8 80 -17 80 -21 0
-4 11 -5 24 -3 14 3 38 -2 55 -10 22 -11 32 -12 36 -3 4 8 6 8 11 -1 3 -7 13
-9 22 -6 14 6 15 4 4 -9 -11 -14 -7 -17 34 -23 33 -5 44 -10 40 -20 -3 -8 0
-16 7 -19 7 -3 6 -5 -3 -5 -22 -1 -22 -39 0 -46 10 -3 22 -5 26 -4 19 3 34 -1
32 -10 -5 -17 53 -62 73 -56 14 5 17 2 13 -9 -3 -9 -10 -16 -16 -16 -5 0 -6
-5 -3 -10 4 -6 15 -8 26 -5 14 5 17 2 13 -8 -3 -9 3 -16 15 -20 12 -3 21 -2
21 2 0 4 9 7 20 7 11 0 20 -4 20 -8 0 -4 -7 -8 -16 -8 -9 0 -23 -8 -30 -17 -8
-11 -13 -13 -14 -6 0 7 -7 10 -15 7 -8 -4 -12 -10 -9 -15 6 -11 -13 -11 -40 0
-17 7 -18 8 -3 14 17 7 13 37 -5 37 -6 0 -5 -6 2 -15 10 -12 10 -15 -4 -15 -9
0 -16 -4 -16 -10 0 -5 -7 -7 -15 -4 -8 4 -15 2 -15 -4 0 -15 -30 -19 -92 -12
-32 3 -61 3 -65 -1 -5 -4 -64 -10 -132 -13 -69 -4 -127 -9 -130 -13 -9 -9 325
4 529 22 301 26 739 100 748 126 2 5 7 7 12 4 19 -11 184 60 269 116 132 87
233 193 308 325 34 60 65 118 68 129 3 11 -6 -2 -21 -30 -32 -61 -26 -55 -59
-61 -21 -4 -28 0 -32 15 -4 16 -11 19 -37 15 -17 -2 -25 -2 -18 2 17 8 5 24
-21 25 -20 1 -20 2 3 9 17 5 19 8 8 9 -10 1 -18 6 -18 11 0 6 -9 10 -20 10
-11 0 -21 5 -21 10 -2 11 -5 25 -9 38 -1 4 -2 10 -1 14 0 3 -44 -15 -98 -40
-54 -26 -97 -50 -94 -54 2 -4 -2 -5 -10 -2 -9 3 -17 -3 -20 -17 -4 -15 -1 -23
14 -26 10 -3 20 -10 21 -17 0 -6 2 -15 3 -21 2 -5 3 -16 4 -24 1 -11 4 -11 16
-1 13 11 18 11 28 0 10 -10 9 -11 -3 -6 -9 5 -9 2 2 -7 10 -8 15 -17 11 -20
-3 -4 1 -7 9 -7 17 0 31 -26 23 -41 -4 -5 0 -6 8 -3 9 3 16 -3 20 -15 3 -12 1
-19 -3 -16 -5 3 -12 0 -16 -6 -4 -8 -3 -9 4 -5 7 4 12 2 12 -4 0 -6 6 -8 13
-4 9 5 9 4 0 -6 -9 -10 -7 -17 13 -32 20 -16 22 -23 13 -34 -9 -11 -9 -14 1
-14 10 0 10 -3 0 -15 -7 -8 -16 -13 -20 -10 -11 7 -51 -25 -45 -36 4 -5 -1 -9
-9 -9 -9 0 -16 -4 -16 -9 0 -13 -62 -33 -72 -23 -5 5 -21 -3 -37 -19 -35 -34
-99 -52 -160 -44 -147 20 -328 46 -343 51 -9 3 -26 7 -39 9 -49 10 -30 17 39
13 59 -2 71 0 67 11 -4 11 -3 12 10 1 8 -7 21 -10 30 -7 8 4 17 2 20 -3 4 -6
16 -10 28 -10 18 0 19 2 7 11 -13 9 -13 10 0 6 8 -2 14 -11 12 -19 -1 -10 7
-17 23 -20 22 -5 25 -2 20 16 -5 17 -4 18 4 5 6 -8 28 -21 50 -29 32 -10 44
-10 69 1 27 12 29 14 14 27 -15 11 -14 12 5 2 13 -6 22 -16 20 -22 -1 -7 6
-14 17 -16 12 -3 16 0 11 8 -4 7 -1 10 6 9 23 -4 66 12 67 24 0 7 3 23 7 37 5
24 5 24 -4 3 -12 -26 -36 -30 -45 -8 -3 8 -1 15 4 15 6 0 10 -4 10 -10 0 -5 3
-10 8 -10 4 0 8 26 9 58 1 44 0 49 -6 22 -3 -21 -9 -30 -14 -23 -4 6 -5 18 -1
26 3 8 -6 31 -20 52 -28 41 -33 60 -13 50 6 -4 2 2 -11 12 -15 13 -24 31 -25
56 -3 38 -22 61 -41 50 -5 -3 -6 -1 -2 6 4 6 11 9 16 6 5 -3 14 12 20 32 7 21
16 43 20 48 3 6 8 33 9 60 1 28 6 68 11 90 5 22 10 43 10 47 0 3 -39 20 -87
38 -167 60 -336 140 -463 218 -122 75 -240 162 -240 176 0 8 11 39 25 71 27
59 55 163 55 203 0 13 -6 22 -15 22 -19 0 -20 -5 16 104 17 52 29 101 27 108
-2 8 -19 -4 -42 -30z m-705 -535 c-6 -8 -7 -18 -3 -22 4 -5 1 -5 -6 -1 -10 6
-10 11 -1 22 6 8 14 14 16 14 3 0 0 -6 -6 -13z m614 -51 c0 -14 -4 -22 -11
-19 -7 2 -15 -1 -20 -8 -4 -7 -3 -10 4 -5 5 3 12 2 14 -4 2 -6 13 -5 29 4 24
12 25 12 21 -10 -3 -15 0 -24 8 -24 7 0 10 -8 7 -20 -3 -12 0 -20 7 -20 7 0
23 -12 37 -27 13 -14 19 -23 12 -20 -6 4 -14 1 -16 -5 -3 -8 -6 -6 -6 5 -1 15
-4 16 -21 7 -11 -6 -18 -15 -15 -20 7 -11 -38 -24 -57 -17 -7 3 1 6 17 7 17 1
24 4 17 7 -9 3 -2 13 19 29 l32 23 -42 7 c-22 4 -42 10 -42 15 -1 5 -2 13 -3
18 -4 32 -11 10 -14 -42 -2 -38 -8 -68 -17 -77 -12 -11 -15 -11 -15 -1 0 11
-3 11 -17 0 -11 -10 -14 -10 -9 -1 4 7 2 12 -4 12 -7 0 -10 6 -7 14 3 8 -5 19
-19 26 -19 11 -21 16 -12 27 9 11 13 12 21 1 6 -9 7 -7 3 6 -7 20 65 126 85
126 6 0 7 6 3 13 -4 6 -3 9 1 4 5 -4 9 -18 10 -31z m15 -128 c0 -13 -23 -5
-28 10 -2 7 2 10 12 6 9 -3 16 -11 16 -16z m-157 -38 c-3 -11 -13 -20 -22 -20
-9 0 -23 -6 -31 -12 -12 -11 -12 -10 -1 5 7 9 20 17 28 17 8 0 12 4 9 9 -4 5
0 12 6 14 7 3 14 6 15 6 0 1 -1 -8 -4 -19z m30 -5 c4 -8 1 -17 -5 -21 -7 -4
-8 -3 -4 4 4 7 2 12 -4 12 -6 0 -8 5 -5 10 8 14 12 13 18 -5z m-43 -29 c0 -3
-4 -8 -10 -11 -5 -3 -10 -1 -10 4 0 6 5 11 10 11 6 0 10 -2 10 -4z m-70 -31
c-13 -15 -35 -11 -24 6 3 5 10 7 15 4 5 -4 9 -1 9 6 0 7 3 9 6 6 4 -4 1 -13
-6 -22z m-315 -287 c-3 -12 0 -27 6 -35 9 -10 7 -13 -6 -13 -15 0 -16 -2 -4
-17 12 -15 12 -16 -1 -8 -13 8 -13 6 -2 -7 11 -14 11 -21 -2 -40 -14 -22 -14
-27 2 -59 11 -21 24 -33 31 -31 8 3 11 0 7 -7 -5 -7 -1 -9 8 -5 9 3 13 11 9
17 -4 6 -1 7 6 2 9 -5 10 -10 2 -18 -18 -18 -13 -25 19 -23 21 2 32 -3 36 -16
3 -10 10 -16 15 -12 5 3 7 10 4 15 -4 5 -1 9 4 9 6 0 11 -5 11 -11 0 -5 4 -8
9 -4 5 3 17 -2 25 -11 9 -8 16 -12 16 -8 0 4 6 -1 14 -11 8 -11 19 -16 30 -12
10 4 19 1 22 -8 3 -7 11 -12 18 -9 7 3 19 -2 26 -11 16 -19 18 -19 -136 4
-211 32 -216 33 -221 47 -5 12 35 282 44 297 8 14 12 7 8 -15z m1830 -78 c-3
-5 -12 -10 -18 -10 -7 0 -6 4 3 10 19 12 23 12 15 0z m-455 -220 c0 -5 -7 -7
-15 -4 -8 4 -15 8 -15 10 0 2 7 4 15 4 8 0 15 -4 15 -10z m-140 -19 c0 -17
-18 -21 -24 -6 -3 9 0 15 9 15 8 0 15 -4 15 -9z m-865 -39 c-3 -3 -11 0 -18 7
-9 10 -8 11 6 5 10 -3 15 -9 12 -12z m882 -22 c1 -11 -2 -22 -8 -25 -7 -5 -7
18 0 43 3 8 7 -1 8 -18z m103 0 c0 -5 -5 -10 -11 -10 -5 0 -7 5 -4 10 3 6 8
10 11 10 2 0 4 -4 4 -10z m-715 -10 c-3 -5 -12 -10 -18 -10 -7 0 -6 4 3 10 19
12 23 12 15 0z m402 -6 c-3 -3 -12 -4 -19 -1 -8 3 -5 6 6 6 11 1 17 -2 13 -5z
m118 -4 c3 -6 -1 -7 -9 -4 -18 7 -21 14 -7 14 6 0 13 -4 16 -10z m-790 -28
c-3 -3 -11 0 -18 7 -9 10 -8 11 6 5 10 -3 15 -9 12 -12z m730 -82 c3 -5 1 -10
-4 -10 -6 0 -11 5 -11 10 0 6 2 10 4 10 3 0 8 -4 11 -10z m165 -14 c0 -2 -7
-7 -16 -10 -8 -3 -12 -2 -9 4 6 10 25 14 25 6z"/>
<path d="M9701 8024 c0 -11 3 -14 6 -6 3 7 2 16 -1 19 -3 4 -6 -2 -5 -13z"/>
<path d="M9643 7955 c0 -22 2 -30 4 -17 2 12 2 30 0 40 -3 9 -5 -1 -4 -23z"/>
<path d="M9150 7344 c0 -8 5 -12 10 -9 6 4 8 11 5 16 -9 14 -15 11 -15 -7z"/>
<path d="M12501 8633 c7 -12 15 -20 18 -17 3 2 -3 12 -13 22 -17 16 -18 16 -5
-5z"/>
<path d="M9659 8574 c-22 -24 -22 -26 -4 -22 11 2 18 7 17 12 -2 5 2 12 9 17
8 4 11 10 8 13 -3 3 -16 -6 -30 -20z"/>
<path d="M9690 8550 c0 -5 5 -10 11 -10 5 0 7 5 4 10 -3 6 -8 10 -11 10 -2 0
-4 -4 -4 -10z"/>
<path d="M12655 8480 c3 -5 11 -10 16 -10 6 0 7 5 4 10 -3 6 -11 10 -16 10 -6
0 -7 -4 -4 -10z"/>
<path d="M8963 8303 c9 -2 25 -2 35 0 9 3 1 5 -18 5 -19 0 -27 -2 -17 -5z"/>
<path d="M8820 8254 c0 -8 5 -12 10 -9 6 3 10 10 10 16 0 5 -4 9 -10 9 -5 0
-10 -7 -10 -16z"/>
<path d="M8812 8171 c-11 -7 -11 -9 0 -14 9 -3 15 1 15 9 0 8 -1 14 -1 14 -1
0 -7 -4 -14 -9z"/>
<path d="M12980 8171 c0 -16 176 -176 221 -200 l44 -24 -56 59 c-31 33 -71 79
-89 104 -18 25 -40 51 -49 58 -17 14 -71 17 -71 3z"/>
<path d="M11145 8137 c142 -53 265 -185 315 -341 64 -197 -5 -421 -168 -551
-87 -70 -101 -116 -57 -191 37 -63 90 -90 210 -108 156 -23 169 -24 188 -14
12 6 19 5 23 -6 7 -17 54 -18 54 -1 0 5 6 3 13 -6 7 -9 19 -16 27 -16 8 -1 36
-5 61 -11 25 -5 60 -8 78 -8 17 1 31 -2 31 -5 0 -9 248 -42 260 -34 5 3 10 2
10 -3 0 -5 44 -14 98 -21 83 -11 275 -39 379 -56 31 -6 32 -5 38 42 4 26 9 56
12 67 4 14 2 16 -8 10 -11 -6 -11 -4 0 10 13 15 13 19 0 27 -12 7 -11 9 2 9
13 0 20 23 33 105 10 57 15 109 11 115 -3 5 -1 10 4 10 14 0 14 36 0 62 -10
18 -9 20 6 14 14 -5 16 -2 12 13 -3 11 -2 21 2 23 4 2 31 147 60 323 29 176
62 371 74 433 13 61 22 112 21 112 -1 0 -51 -31 -111 -68 -197 -125 -356 -202
-559 -273 -153 -53 -419 -112 -564 -124 -41 -3 -84 -8 -95 -10 -18 -4 -23 4
-37 66 -46 195 -211 363 -404 413 -84 22 -91 19 -19 -7z m386 -770 c-10 -9
-11 -8 -5 6 3 10 9 15 12 12 3 -3 0 -11 -7 -18z m-5 -29 c4 -7 4 -10 -1 -6 -4
4 -14 3 -22 -4 -11 -8 -12 -7 -7 6 7 19 20 21 30 4z m-45 -41 c-6 -8 -7 -18
-3 -22 4 -5 2 -5 -5 -1 -13 7 -37 -27 -26 -38 3 -3 -1 -6 -10 -6 -23 0 -22 5
15 45 30 33 53 50 29 22z m43 -6 c3 -5 -3 -11 -15 -14 -16 -4 -18 -3 -8 9 13
16 16 17 23 5z m-117 -83 c-3 -8 -6 -5 -6 6 -1 11 2 17 5 13 3 -3 4 -12 1 -19z"/>
<path d="M8641 8114 c0 -11 3 -14 6 -6 3 7 2 16 -1 19 -3 4 -6 -2 -5 -13z"/>
<path d="M7560 8015 c-6 -8 -10 -20 -7 -27 3 -8 6 -6 6 5 1 10 5 16 9 13 5 -3
9 1 9 9 0 19 -2 19 -17 0z"/>
<path d="M8838 7983 c7 -3 16 -2 19 1 4 3 -2 6 -13 5 -11 0 -14 -3 -6 -6z"/>
<path d="M7599 7928 c-2 -23 2 -43 12 -53 7 -6 9 3 7 28 -2 34 -16 53 -19 25z"/>
<path d="M11119 7883 c-13 -14 -18 -23 -10 -18 8 4 16 2 21 -5 5 -8 10 -3 14
15 10 38 4 39 -25 8z"/>
<path d="M11115 7830 c-3 -5 -1 -10 4 -10 6 0 11 5 11 10 0 6 -2 10 -4 10 -3
0 -8 -4 -11 -10z"/>
<path d="M11111 7794 c0 -11 3 -14 6 -6 3 7 2 16 -1 19 -3 4 -6 -2 -5 -13z"/>
<path d="M11080 7700 c-7 -17 -10 -33 -8 -36 3 -3 11 9 17 27 14 42 7 49 -9 9z"/>
<path d="M7568 7703 c7 -3 16 -2 19 1 4 3 -2 6 -13 5 -11 0 -14 -3 -6 -6z"/>
<path d="M10560 7569 c0 -5 5 -7 10 -4 6 3 10 8 10 11 0 2 -4 4 -10 4 -5 0
-10 -5 -10 -11z"/>
<path d="M10495 7549 c-12 -18 3 -22 20 -5 14 14 14 16 1 16 -8 0 -18 -5 -21
-11z"/>
<path d="M10457 7513 c-4 -3 -7 -11 -7 -17 0 -6 5 -5 12 2 6 6 9 14 7 17 -3 3
-9 2 -12 -2z"/>
<path d="M8220 7390 c0 -5 5 -10 11 -10 5 0 7 5 4 10 -3 6 -8 10 -11 10 -2 0
-4 -4 -4 -10z"/>
<path d="M7905 7366 c0 -13 3 -22 8 -19 4 2 7 13 7 24 0 10 -3 19 -7 19 -5 0
-8 -11 -8 -24z"/>
<path d="M8228 7373 c-10 -2 -18 -9 -18 -15 0 -5 7 -7 16 -4 9 3 22 6 30 6 8
0 14 5 14 10 0 10 -12 11 -42 3z"/>
<path d="M10585 7298 c14 -29 25 -62 25 -73 0 -15 2 -17 9 -7 8 13 -41 132
-53 132 -3 0 6 -24 19 -52z"/>
<path d="M7900 7320 c0 -5 4 -10 9 -10 6 0 13 5 16 10 3 6 -1 10 -9 10 -9 0
-16 -4 -16 -10z"/>
<path d="M7860 7300 c0 -5 5 -10 11 -10 5 0 7 5 4 10 -3 6 -8 10 -11 10 -2 0
-4 -4 -4 -10z"/>
<path d="M8625 7280 c-3 -5 -1 -10 4 -10 6 0 11 5 11 10 0 6 -2 10 -4 10 -3 0
-8 -4 -11 -10z"/>
<path d="M8685 7270 c-3 -5 -1 -10 4 -10 6 0 11 5 11 10 0 6 -2 10 -4 10 -3 0
-8 -4 -11 -10z"/>
<path d="M8705 7230 c-3 -5 -1 -10 4 -10 6 0 11 5 11 10 0 6 -2 10 -4 10 -3 0
-8 -4 -11 -10z"/>
<path d="M9387 7137 c-3 -9 -2 -17 4 -17 6 0 8 -3 6 -7 -3 -5 6 -8 19 -8 20 0
22 2 9 11 -8 6 -11 15 -7 19 4 5 2 5 -5 2 -6 -4 -13 -2 -15 5 -3 8 -7 6 -11
-5z"/>
<path d="M8630 7100 c0 -5 5 -10 10 -10 6 0 10 5 10 10 0 6 -4 10 -10 10 -5 0
-10 -4 -10 -10z"/>
<path d="M8667 7089 c7 -7 15 -10 18 -7 3 3 -2 9 -12 12 -14 6 -15 5 -6 -5z"/>
<path d="M9524 7049 c-5 -9 -2 -10 10 -6 12 5 15 3 9 -6 -12 -20 -12 -37 0
-38 7 0 3 -5 -8 -10 l-20 -9 20 3 c16 2 20 10 20 36 0 35 -17 52 -31 30z"/>
<path d="M8632 6980 c0 -14 2 -19 5 -12 2 6 2 18 0 25 -3 6 -5 1 -5 -13z"/>
<path d="M8911 6977 c0 -10 -5 -16 -10 -12 -5 3 -12 1 -15 -4 -9 -14 14 -25
26 -13 5 5 8 18 5 28 -4 18 -5 18 -6 1z"/>
<path d="M8655 6970 c-3 -5 -1 -10 4 -10 6 0 11 5 11 10 0 6 -2 10 -4 10 -3 0
-8 -4 -11 -10z"/>
<path d="M8736 6965 c-3 -9 3 -19 14 -25 21 -11 25 -4 14 24 -8 20 -20 21 -28
1z"/>
<path d="M8930 6961 c0 -5 5 -13 10 -16 6 -3 10 -2 10 4 0 5 -4 13 -10 16 -5
3 -10 2 -10 -4z"/>
<path d="M8633 6925 c0 -8 4 -12 9 -9 5 3 6 10 3 15 -9 13 -12 11 -12 -6z"/>
<path d="M8848 6928 c5 -5 16 -8 23 -6 8 3 3 7 -10 11 -17 4 -21 3 -13 -5z"/>
<path d="M8900 6920 c0 -5 5 -10 11 -10 5 0 7 5 4 10 -3 6 -8 10 -11 10 -2 0
-4 -4 -4 -10z"/>
<path d="M5895 6248 c-41 -23 -403 -319 -409 -334 -21 -54 13 -136 66 -162 50
-24 143 28 315 177 l79 68 80 -64 c111 -90 252 -183 276 -183 32 0 75 30 97
70 29 53 27 81 -11 117 -29 27 -230 186 -361 286 -51 39 -93 47 -132 25z"/>
<path d="M8500 6151 c-19 -10 -48 -34 -64 -54 -24 -30 -29 -47 -33 -104 -3
-58 0 -74 19 -108 43 -74 150 -105 235 -70 49 20 71 41 95 89 44 86 4 204 -83
248 -45 24 -125 23 -169 -1z"/>
<path d="M11982 6149 c-85 -42 -122 -161 -77 -252 39 -83 155 -120 247 -79 82
36 122 119 104 217 -8 43 -59 103 -103 121 -48 21 -121 17 -171 -7z"/>
<path d="M14150 6137 c-51 -26 -50 0 -49 -937 0 -482 4 -893 9 -914 5 -21 14
-44 20 -50 6 -6 58 -12 123 -14 101 -3 115 -1 137 16 l25 20 5 419 c6 457 6
460 68 544 36 49 68 74 129 101 69 32 198 31 270 -1 61 -27 126 -93 156 -159
21 -45 22 -63 27 -475 l5 -429 24 -19 c19 -16 40 -19 128 -19 97 0 106 2 128
25 l25 24 0 453 c0 506 -2 527 -67 652 -67 128 -171 208 -319 246 -189 49
-415 -1 -531 -116 l-43 -43 0 315 c0 187 -4 323 -10 334 -5 10 -24 23 -41 29
-43 15 -188 14 -219 -2z"/>
<path d="M3987 6120 c-126 -22 -289 -87 -394 -158 -240 -163 -380 -406 -414
-718 -26 -249 58 -539 211 -722 117 -139 308 -256 505 -309 88 -23 120 -26
260 -27 134 0 175 3 249 22 109 27 217 83 273 139 22 24 43 43 46 43 2 0 7
-28 9 -62 4 -51 9 -65 32 -85 24 -20 38 -23 107 -23 102 0 134 15 149 70 7 27
10 182 8 466 l-3 426 -28 24 -28 24 -374 0 c-205 0 -381 -3 -390 -6 -28 -11
-46 -62 -47 -132 0 -78 12 -115 44 -135 21 -14 236 -27 444 -27 l62 0 -5 -87
c-6 -101 -22 -133 -107 -210 -103 -93 -257 -144 -434 -144 -187 1 -337 59
-460 180 -119 115 -179 256 -189 437 -18 326 153 585 449 679 212 67 445 32
664 -100 96 -58 118 -64 164 -40 55 28 128 153 116 200 -9 37 -108 119 -203
167 -174 89 -303 118 -516 117 -84 -1 -174 -5 -200 -9z"/>
<path d="M5771 5624 c-84 -18 -190 -69 -270 -129 -253 -192 -339 -617 -185
-920 129 -254 364 -389 679 -388 209 1 372 61 497 184 86 84 89 117 19 192
-65 71 -122 75 -200 13 -104 -81 -202 -116 -326 -116 -220 0 -369 115 -419
323 l-6 27 472 0 c260 0 491 5 513 10 22 5 50 21 63 35 19 23 22 37 22 116 0
328 -195 585 -497 653 -88 20 -272 20 -362 0z m271 -265 c76 -16 138 -50 187
-104 49 -54 80 -117 84 -172 l2 -38 -170 -3 c-93 -2 -261 0 -373 3 l-204 7 7
27 c12 52 55 128 99 173 93 97 228 136 368 107z"/>
<path d="M7494 5631 c-109 -18 -210 -65 -281 -134 l-33 -31 0 47 c0 38 -5 53
-25 72 -22 23 -32 25 -119 25 -121 0 -142 -8 -156 -59 -7 -27 -10 -243 -8
-666 l3 -627 24 -19 c19 -16 40 -19 127 -19 94 0 105 2 131 24 l28 24 5 429
c4 378 7 432 22 466 32 69 76 115 146 149 60 30 75 33 152 33 107 -1 170 -27
234 -95 74 -79 76 -93 76 -550 0 -252 4 -408 10 -427 15 -43 47 -53 161 -53
93 0 102 2 124 25 l25 24 0 428 c0 381 -2 438 -19 520 -43 207 -154 339 -331
394 -73 22 -218 32 -296 20z"/>
<path d="M9537 5620 c-213 -45 -402 -187 -488 -368 -54 -115 -73 -203 -73
-342 0 -147 16 -214 77 -340 58 -120 177 -239 297 -298 117 -58 184 -74 331
-79 164 -7 260 11 388 73 79 38 108 60 181 132 70 71 94 103 128 172 61 127
76 193 76 345 0 153 -15 220 -75 345 -59 119 -177 238 -301 298 -157 78 -356
101 -541 62z m331 -290 c165 -57 273 -223 273 -417 0 -134 -36 -227 -122 -318
-141 -149 -395 -167 -566 -42 -124 92 -187 257 -163 428 39 276 312 440 578
349z"/>
<path d="M13121 5625 c-91 -20 -183 -66 -236 -119 l-45 -45 0 33 c0 51 -20 96
-47 107 -13 5 -67 9 -119 9 -88 0 -97 -2 -120 -25 l-24 -25 2 -651 3 -651 24
-19 c19 -16 40 -19 128 -19 97 0 106 2 128 25 14 13 26 34 27 47 1 13 2 201 3
418 0 427 0 424 57 507 84 123 288 169 434 98 62 -30 97 -69 133 -145 l26 -55
5 -422 5 -422 23 -23 c21 -21 31 -23 132 -23 101 0 111 2 132 23 l23 23 0 457
c0 510 0 506 -72 645 -106 202 -366 307 -622 252z"/>
<path d="M16155 5626 c-267 -61 -466 -251 -537 -513 -27 -102 -30 -296 -5
-395 33 -135 120 -273 224 -361 73 -61 216 -130 313 -152 107 -24 273 -22 375
4 266 69 451 250 522 511 28 103 25 313 -6 410 -77 249 -228 401 -476 480 -89
29 -316 37 -410 16z m295 -288 c190 -57 303 -215 304 -423 0 -192 -95 -343
-261 -417 -73 -32 -202 -36 -291 -9 -140 42 -248 158 -281 301 -26 111 -6 269
44 353 35 60 121 141 181 171 87 43 208 53 304 24z"/>
<path d="M8480 5603 c-8 -3 -23 -12 -32 -21 -17 -14 -18 -58 -18 -664 l0 -649
25 -24 c23 -23 31 -25 130 -25 99 0 107 2 130 25 l25 24 0 646 0 646 -25 24
c-22 23 -31 25 -122 24 -54 0 -105 -3 -113 -6z"/>
<path d="M10660 5602 c-48 -10 -60 -39 -60 -144 0 -134 -15 -128 293 -130 280
-1 377 -4 384 -12 3 -2 -44 -62 -105 -133 -168 -197 -554 -683 -574 -722 -20
-39 -23 -116 -7 -174 20 -73 0 -71 568 -69 l506 2 23 25 c19 23 22 37 22 116
0 82 -2 92 -25 114 l-24 25 -335 0 -336 0 345 430 c190 237 348 442 351 455 3
14 4 59 2 101 -6 122 26 114 -457 114 -223 0 -435 2 -471 4 -36 3 -81 2 -100
-2z"/>
<path d="M11965 5600 c-12 -4 -26 -14 -32 -21 -12 -15 -16 -303 -14 -952 l1
-358 25 -24 c23 -23 31 -25 130 -25 99 0 107 2 130 25 l25 24 0 650 0 650 -26
20 c-23 18 -40 21 -123 20 -53 0 -105 -4 -116 -9z"/>
</g>
</svg>
